<svg class="svg logo-header" viewBox="0 0 1000 146" xmlns="http://www.w3.org/2000/svg">
  <style>
    .svg.logo-header {
      fill: #f2f2f2;
    }
  </style>
  <path d="M212.4 45.7c-0.1-0.7-0.2-1.4-0.4-2 -0.2-0.6-0.4-1.3-0.6-2 -0.4-1.1-0.7-2.3-1-3.7 -0.3-1.5-0.5-3.1-0.4-4.6 0.1-0.7 0.3-1.4 0.5-2 0.2-0.4 0.4-0.7 0.6-1l0.4-2.5h1.6c0.6 0.1 1.2 0.1 1.8 0.1h1.8c2.7 0 5.5-0.1 8.4-0.4 2.9-0.3 5.8-0.6 8.8-1 3.3-0.6 6.8-1 10.6-1.3 0.4-1 0.6-1.7 0.7-2l0.4-1 1.2-0.8c1.2-0.2 2.4 0.1 3.4 0.8 0.6 0.5 1.1 1.1 1.5 1.8 1.9-0.2 3.8-0.4 5.7-0.8 1.9-0.3 3.9-0.7 6-1 2.9-0.5 5.8-0.9 8.7-1.4 2.8-0.5 5.7-0.7 8.6-0.7 1.2 0 2.4 0 3.4 0.1 1.1 0.1 2.1 0.2 3.1 0.4l1.3 1.3c0.3 0.6 0.6 1.3 1.1 1.8 0.5 0.6 1 1.2 1.5 1.7 1.2 1.3 2.3 2.7 3.2 4.2 1.1 2.3 1.5 4.9 1.1 7.4l-0.5 1.4c-0.3 0.4-0.7 0.8-1.1 1.1l-1.1 1.8h-1.2c-0.5 0-1.1 0-1.6 0.2 -0.4 0.2-0.9 0.4-1.3 0.6 -0.3 0.2-0.6 0.4-1 0.5 -0.4 0.1-0.7 0.3-1.2 0.5 -0.6-0.1-1.2-0.1-1.8-0.1h-1.5c-2.3 0-4.7 0.2-7 0.6 -2.5 0.4-4.9 0.8-7.3 1.3 -1.7 0.3-3.4 0.5-4.9 0.8 -1.6 0.2-3 0.4-4.3 0.6 -0.7 2.4-1.4 4.6-1.9 6.5 -0.6 1.9-1.2 3.7-1.8 5.6 -0.6 1.9-1.3 3.8-1.8 5.7 -0.6 1.9-1.1 4-1.6 6.4 -0.8 1.6-1.5 3.2-2.1 4.8 -0.6 1.7-1.1 3.5-1.4 5.3 -1.1 1.6-1.9 3.3-2.3 5.2 -0.5 1.9-0.9 3.5-1.2 4.8l-0.4 2.1c-0.4 0.5-0.7 1-0.9 1.5 -0.1 0.4-0.3 0.9-0.6 1.3 -0.2 1.2-0.5 2.4-0.9 3.5 -0.1 0.5-0.3 1-0.4 1.5 -0.1 0.4-0.2 0.8-0.1 1.2 -0.1 0.8-0.3 1.6-0.6 2.4 0 0.6 0 1.1-0.1 1.7 -0.1 0.6-0.1 1.1-0.2 1.7 -0.1 0.7-0.3 1.2-0.3 1.8 -0.1 0.5 0 1 0.1 1.5l0.6 1.1c0.2 0.4 0.4 0.9 0.5 1.4 0.1 0.2 0.3 0.3 0.5 0.4 0.2 0.1 0.4 0.2 0.5 0.4 0.4 0.5 1 0.9 1.6 1.1l1.1 1.7c0.5 2.7 0.1 5.5-1.2 7.9 -1.4 2.2-3.9 3.4-6.4 3.2l-1.5-0.1c-0.3-0.4-0.6-0.8-0.9-1.3 -0.6-0.4-1.2-0.7-1.6-0.9 -0.5-0.3-0.9-0.8-1.2-1.3 -0.1-0.2-0.3-0.3-0.5-0.4 -0.2 0-0.4-0.2-0.5-0.4 -0.6-0.2-1.2-0.6-1.7-1l-1.2-0.8c0.1-0.9 0.1-1.6 0.1-2 -0.6-1.1-1-2.2-1.3-3.4 -0.3-1.2-0.6-2.5-0.8-3.8 -0.2-1-0.4-2-0.6-2.8 -0.2-0.8-0.4-1.5-0.8-2.2 -0.2-5.5 0.2-11.1 1.4-16.5 1.1-4.4 2.3-8.8 3.5-13 0.7-2.2 1.4-4.5 2-6.9 0.6-2.3 1.2-4.7 1.7-7.2l1.2-1.5c0.3-0.4 0.6-0.7 1-1 0-1.2 0.2-2.4 0.5-3.6 0.4-1.2 0.7-2.4 1.2-3.6 0.3-0.7 0.6-1.5 0.8-2.2 0.2-0.6 0.4-1.3 0.5-2 -0.4 0-0.9 0-1.3 0.1 -0.4 0-0.8 0.1-1.2 0.2 -0.9 0.3-1.8 0.4-2.7 0.4 -0.5 0-0.9 0-1.4-0.1 -0.5 0.3-1 0.6-1.6 0.6 -0.5 0-1 0.1-1.5 0.1h-2.6c-0.7 0-1.4 0.1-2 0.4h-5.5c-0.6 0-1.3-0.1-1.9-0.2 -0.8-0.2-1.6-0.5-2.3-1l-0.8-1.1c-0.4-1-0.8-1.6-1.2-1.7l-1.2-0.4L212.4 45.7z"/><path d="M332.9 111.1c0.2 2 0 4.1-0.6 6 -0.5 1.5-1.3 2.9-2.4 4.1 -1 1.1-2.1 2-3.4 2.7 -1.3 0.7-2.5 1.3-3.8 1.8 -0.6-0.5-1.1-1-1.7-1.5 -0.5-0.5-1.2-0.9-1.9-1.2 -0.9-2.2-1.8-4.2-2.7-6 -0.9-1.9-1.3-3.9-1.2-6 0-0.1 0.1-0.6 0.2-1.5 0.1-0.9 0.3-2 0.4-3.1 0.2-1.1 0.3-2.2 0.4-3.2 0.1-1 0.2-1.5 0.2-1.6 -1.8 0.2-3.5 0.7-5.2 1.4 -1.8 0.8-3.5 1.6-5.2 2.7 -1.7 1-3.3 2.1-4.7 3.1 -1.5 1-2.7 1.9-3.6 2.7 -0.1 0.7-0.2 1.4-0.4 2 -0.3 1.1-0.6 2.2-1.1 3.4 -0.4 1.1-0.9 2.1-1.4 3.2 -0.5 0.9-1 1.4-1.5 1.4 0.1 0.3 0.2 0.6 0.3 0.8 0.1 0.4 0.1 0.8 0 1.1 -1 0.4-1.9 0.8-2.7 1.5 -0.8 0.6-1.6 1.1-2.5 1.5 -0.9 0.4-1.8 0.6-2.8 0.6 -1.3-0.1-2.5-0.6-3.5-1.4 0-0.5-0.2-1.1-0.5-1.5 -0.3-0.4-0.7-0.8-1.1-1.1 -0.4-0.3-0.7-0.6-1-0.8s-0.4-0.4-0.4-0.6c-0.4 0.1-0.5-0.2-0.4-1 0.1-0.7 0.4-0.9 0.9-0.6 -0.7-1.1-1.2-2.2-1.4-3.4 -0.3-1.3-0.7-2.5-1.2-3.7 0.2-0.3 0.3-0.6 0.4-1 0.1-0.5 0.2-0.9 0.3-1.3 0-0.3 0.2-0.6 0.3-0.8 0.1-0.2 0.3-0.1 0.5 0.1 -0.1-0.7-0.1-1.4 0-2.1 0.1-0.6 0.3-1.1 0.4-1.5 0.1-0.5 0.2-0.9 0.3-1.4 0.1-0.5-0.1-1.1-0.3-1.5 1.1-2.1 1.9-4.3 2.3-6.7 0.3-2.2 0.5-4.3 0.6-6.5 0.6-0.9 1.1-1.8 1.3-2.8 0.4-1.2 0.7-2.5 0.9-3.7 0.2-1.2 0.3-2.4 0.3-3.7 0-1-0.1-1.9-0.4-2.9 0.1-0.5 0.5-0.6 1.2-0.4 0.4-3.1 0.7-6.6 0.9-10.5 0.2-3.9 0.5-7.6 0.9-11.1 0.3-3.2 1.1-6.3 2.1-9.3 0.7-2.4 2.5-4.3 4.8-5.3 0.4 1.8 0.9 3.5 1.7 5.2 0.7 1.5 1.4 2.9 2.3 4.3 0.8 1.4 1.6 2.7 2.5 4.1 0.9 1.5 1.7 3.1 2.3 4.8 -0.1 1.8-0.2 3.8-0.4 6.2 -0.2 2.3-0.5 4.7-0.8 7.2 -0.3 2.4-0.6 4.8-1 7 -0.3 2.2-0.6 4.2-0.9 5.7 0.1 0.5 0.3 0.7 0.6 0.8s0.4 0.5 0.2 1.3c1.7-0.6 3.5-1.1 5.4-1.5 1.9-0.5 3.7-1 5.6-1.5 1.9-0.6 3.7-1.2 5.4-1.9 1.7-0.7 3.4-1.6 4.9-2.6 0.4-3.6 0.8-7.3 1.4-10.9 0.6-3.7 0.6-7.5 0.2-11.2 0.4-0.4 0.7-0.9 0.9-1.4 0.2-0.5 0.6-0.9 1.1-1.1 -0.4-1.8-0.5-3.7-0.4-5.6 0.1-1.9 0.3-3.8 0.8-5.6 0.4-1.6 1.1-3.2 2-4.6 0.8-1.2 1.9-2 3.3-2.5 0.8 1.6 1.5 3.2 2 4.8 0.6 1.7 1.2 3.5 1.8 5.2 0.6 1.7 1.3 3.4 1.9 4.9 0.6 1.5 1.5 2.8 2.6 4 0.2 2.7 0.4 5.5 0.5 8.4 0.1 2.9 0.2 5.8 0.3 8.8 -0.6 3.6-1.2 7-1.9 10.3 -0.7 3.5-1.2 7-1.5 10.6 -0.5 0.8-0.9 1.6-1.2 2.5 -0.3 0.9-0.6 1.9-0.9 2.9 -0.3 1-0.6 1.9-1 2.8 -0.3 0.8-0.8 1.6-1.3 2.3 0.3 1 0.3 2.1 0.2 3.2C332.2 108.8 332.4 110 332.9 111.1z"/><path d="M403 45.8c0.1 0.5 0.1 1 0.1 1.5 0 0.3-0.1 0.6-0.1 0.9 0 0.3-0.1 0.6-0.1 0.9 0 0.5 0.1 1 0.2 1.5 -1.1 2.6-2.9 4.9-5.2 6.5 -2 1.2-4.1 2-6.4 2.5 -2.3 0.5-4.6 1-7 1.6 -2.6 0.7-5.1 1.9-7.1 3.7 -0.8-0.5-1.7-0.5-2.5 0 -1 0.5-2.2 0.7-3.3 0.4 -0.4 0.5-1 1-1.6 1.2 -0.6 0.2-1.3 0.5-1.9 0.8 0.3 0.8 0.4 1.7 0.4 2.6 -0.1 0.7 0 1.5 0.3 2.2 2.8 0.3 5.6 0.2 8.3-0.1 3-0.4 6-0.6 9-0.7 0.1 0.5 0 0.8-0.1 0.9 -0.1 0.1-0.2 0.4-0.1 0.8 0.6 0.5 1.1 1.1 1.5 1.8 0.5 0.7 1 1.4 1.5 2 0.4 0.6 1 1.1 1.6 1.6 0.5 0.4 1.2 0.6 1.9 0.5 0.3 0.8 0.5 1.6 0.6 2.5 0.1 0.9 0 1.9-0.3 2.7 -1.1 1-2.3 2.1-3.4 3.2 -1.1 1.1-2.3 2-3.6 2.9 -1.2 0.8-2.6 1.5-4 2 -1.5 0.5-3.1 0.7-4.7 0.6h-0.8c-0.3-0.1-0.5-0.2-0.7-0.4 -0.7 0.5-1.6 0.7-2.4 0.4 -0.8-0.2-1.7-0.1-2.4 0.4 -0.9-0.5-1.9-0.7-2.8-0.6 -1 0.1-2-0.1-3-0.5 -1.2 2-2.2 4.1-3.1 6.3 -1 2.3-1.8 4.7-2.5 7.2 2 0.4 4 0.6 6.1 0.6 1.5-0.1 3.1-0.2 4.6-0.5 1.4-0.2 2.9-0.5 4.4-0.7 1.9-0.2 3.8-0.3 5.7-0.2 1.5-1.1 3.3-1.8 5.1-2 1.9-0.3 3.7-0.8 5.4-1.6 0.6 0.3 1.2 0.8 1.5 1.5 0.4 0.7 0.8 1.4 1.2 2 0.4 0.6 0.8 1.1 1.2 1.6 0.4 0.5 1 0.7 1.6 0.6 0.3 0.4 0.5 0.9 0.6 1.3 0.1 0.5 0.2 1 0.3 1.5 0.1 0.4 0.2 0.8 0.4 1.2 0.2 0.3 0.6 0.5 0.9 0.4 -0.8 2.6-2 5-3.7 7.1 -1.3 1.6-2.9 2.8-4.8 3.7 -1.9 0.9-3.9 1.5-6 2 -2.2 0.5-4.6 1-7.3 1.7 -0.5 0.2-1.1 0.2-1.6-0.1 -0.5-0.2-1-0.4-1.5-0.4 -1.9 0.5-3.9 1-5.9 1.3 -2.3 0.4-4.6 0.5-7 0.4 -2.3-0.1-4.6-0.5-6.8-1.2 -2.1-0.7-3.9-2-5.3-3.7 -0.6-0.7-1-1.5-1.1-2.3 -0.2-0.9-0.7-1.6-1.4-2 -0.1-1.2-0.2-2.6-0.4-4.1 -0.2-1.5-0.4-3.1-0.6-4.7 -0.2-1.6-0.4-3.2-0.5-4.8 -0.1-1.4-0.1-2.9 0.2-4.3 0.2-1.3 0.6-2.6 1.3-3.8 0.7-1.1 0.9-2.4 0.7-3.6 0.4-0.1 0.6-0.4 0.6-0.8 0.1-0.4 0.4-0.6 0.9-0.5 0.4-1.7 0.9-3.3 1.4-4.8 0.5-1.5 1-2.9 1.6-4.3 0.5-1.4 1.1-2.8 1.6-4.3 0.5-1.5 1.1-3.1 1.6-4.8 -1-1.2-1.7-2.5-2.2-4 -0.5-1.4-0.8-2.9-1-4.3 -0.2-1.5-0.4-2.9-0.5-4.5 -0.2-1.6-0.4-3.2-0.8-4.7 0.6-1.3 1.5-2.5 2.6-3.4 1-0.9 2.2-1.6 3.4-2.2 1.3-0.6 2.6-1.1 4-1.4 1.4-0.4 2.9-0.8 4.5-1.3 2.5-1.1 5.1-2 7.7-2.8 2.3-0.7 4.5-1.2 6.7-1.6 2.2-0.4 4.5-0.8 6.8-1.2 2.4-0.4 5.1-0.9 8.1-1.7 0.6 0.8 1.3 1.3 1.8 1.3 0.3-0.8 0.6-1.1 1-0.8 0.4 0.3 0.6 0.1 0.5-0.8 0.6 1.5 1.6 2.8 2.7 4C400.4 44.1 401.6 45.1 403 45.8z"/><path d="M444.7 61.5c0.2-1.4 0.4-2.5 0.4-3.4 0-1-0.2-2-0.8-2.9 0.3-1.5 0.5-2.7 0.7-3.5 0.2-1.2 0.2-2.3 0.1-3.5 0.5-2.2 1.6-4.3 3-6.2 1.3-1.6 2.7-3 4.4-4.3 1.5-1.1 3.2-2.1 4.9-2.9 1.7-0.8 3.3-1.5 4.8-2 0-0.4-0.1-0.6-0.4-0.6s-0.4-0.2-0.2-0.7c4-1 7.9-2.3 11.7-4.1 3.9-1.8 7.9-3.4 12-4.8 4.1-1.4 8.3-2.3 12.6-2.6 4.6-0.3 9.2 0.5 13.5 2.2 0.3 1.1 0.7 2.2 1.2 3.2 0.5 1 1 2 1.6 3 0.5 1 1 1.9 1.4 2.9 0.4 0.9 0.7 1.9 0.8 2.9 0.8 1 1.6 2.1 2.1 3.3 0.6 1.5 0.7 3.1 0.3 4.7 -0.8 0.8-1.6 1.5-2.5 2.2 -0.9 0.7-1.8 1.4-2.7 2.1 -3.1-1-6.4-1.4-9.7-1.1 -3.2 0.3-6.1 0.6-8.7 1 -0.6-1-1.6-1.6-2.8-1.6 -1.2 0.1-2.3 0.3-3.4 0.7 -1.2 0.4-2.3 0.8-3.5 1.3 -1 0.4-2.1 0.5-3.2 0.4 -0.8 0.9-1.9 1.6-3.1 1.9 -1.3 0.3-2.7 0.6-4.1 0.8 -0.1 0.3 0 0.7 0.2 1 0.2 0.2 0.2 0.6 0.1 1.1 0.5 0.8 1.2 1.4 2 1.8 0.9 0.3 1.7 0.6 2.6 0.9 0.9 0.3 1.7 0.7 2.4 1.2 0.8 0.6 1.3 1.5 1.4 2.5 1.2 0.1 2.4 0.5 3.3 1.3 0.9 0.8 1.8 1.8 2.4 2.9 0.6 1.1 1.1 2.3 1.4 3.6 0.3 1.1 0.4 2.3 0.3 3.4 0.3 0.9 0.6 1.3 0.9 1.1s0.7 0 1.1 0.7c0.4 1.6 1 3.1 2 4.4 1 1.5 1.8 3.2 2.4 5 0.1 2.8 0.3 5.3 0.4 7.6 0.1 2.2-0.2 4.5-0.9 6.6 -1.1 4-2.9 7.7-5.3 11.1 -2.2 3.2-4.8 6.1-7.8 8.6 -2.8 2.4-5.9 4.6-9.2 6.5 -3.1 1.8-6.3 3.3-9.6 4.6 -0.3-0.1-0.7-0.1-1 0 -0.4 0.1-0.5-0.2-0.3-0.8 -0.6 0.7-1.3 1.2-2.2 1.4 -0.9 0.2-1.8 0.3-2.7 0.2 -1 0-1.9-0.1-2.9-0.2 -1-0.1-1.9 0-2.8 0.1 -0.6-0.7-1.1-1.5-1.6-2.2 -0.5-0.8-0.9-1.7-1.1-2.7 -0.4-0.1-0.5-0.4-0.5-0.9 0-0.5-0.1-0.8-0.5-0.8 0-0.3 0-0.6 0.1-0.8 0.1-0.2 0.1-0.4 0.2-0.6 0.3-0.3 0.4-0.5 0.4-0.6 -0.1-0.2-0.2-0.3-0.3-0.4 -0.2-0.2-0.4-0.3-0.5-0.5 -0.2-0.2-0.2-0.5-0.2-0.7 0.4-1 0.5-2 0.4-3 -0.1-1.2-0.2-2.4-0.3-3.6 -0.1-1.1 0-2.3 0.2-3.4 0.2-1.1 0.9-2.1 1.8-2.7 2.8 0.4 5.6 0.2 8.3-0.6 2.6-0.7 5.1-1.8 7.4-3.1 2.3-1.3 4.5-2.7 6.7-4.3 2.1-1.5 4.2-3 6.2-4.3 0.2-0.9 0.5-1.7 1-2.4 0.5-0.7 0.9-1.3 1.4-1.9 0.5-0.6 1-1.3 1.4-2 0.5-0.8 0.8-1.7 1-2.6 0.1-0.3 0.1-0.6 0-0.8 -0.1-0.2-0.2-0.4-0.3-0.5 -0.2-0.2-0.3-0.3-0.4-0.5 -0.2-0.3-0.2-0.5-0.2-0.8 -0.2-0.1-0.4-0.2-0.6-0.3 -0.1-0.1-0.3-0.1-0.5-0.1 -1.9-1.2-3.8-2.2-5.9-3.1 -1.9-0.7-3.6-1.7-5.3-2.8 -0.7 0.7-1.7 0.9-2.6 0.6 -1-0.4-2.1-0.8-3.1-1.1 -2.9-0.2-5.7-0.5-8.5-1.1 -2.7-0.6-5.4-1.6-7.8-2.9 -0.1-0.5-0.3-1-0.5-1.5 -0.2-0.4-0.7-0.5-1.5-0.4 -0.5-0.9-1-1.8-1.6-2.6C445.6 63.4 445.1 62.5 444.7 61.5z"/><path d="M572.5 119.7c-3 0.2-6.1 0.1-9.1-0.3 -2.7-0.4-5.3-1.3-7.7-2.7 -0.2-0.2-0.4-0.4-0.4-0.7 -0.1-0.3-0.2-0.6-0.4-0.8 -0.5-0.3-1-0.4-1.6-0.4 -0.5 0.1-1.1 0-1.6-0.2 -0.9-0.7-1.8-1.4-2.7-2.2 -1.2-1.1-2.3-2.1-3.3-3 -1.3-1.3-2.5-2.6-3.7-3.9 -1.1-1.3-2.1-2.7-3-4.2 -0.2-0.3-0.5-0.6-0.9-0.6 -0.3 0-0.7-0.2-1-0.4 -2.1 1.8-3.9 3.9-5.3 6.3 -1.4 2.5-2.8 5.1-4.1 7.7 -1.3 2.6-2.6 5.1-4.1 7.4 -1.3 2.2-3.2 4.1-5.5 5.3 -0.6 0-1.2-0.1-1.7-0.4 -0.5-0.3-1-0.6-1.4-1 -0.4-0.4-0.9-0.8-1.3-1.2 -0.4-0.4-0.9-0.6-1.4-0.8 0-1-0.2-2.1-0.5-3.1 -0.3-0.9-0.6-1.8-1-2.7 -0.3-0.8-0.5-1.6-0.7-2.5 -0.1-0.8 0-1.6 0.4-2.3 -0.6-0.7-1.2-1.3-1.9-1.8 0.4-0.4 0.6-1 0.6-1.5 0-0.5-0.1-0.9-0.3-1.4 -0.2-0.5-0.3-1-0.4-1.5 -0.1-0.6 0-1.2 0.3-1.7 0.4 0 0.9-0.1 1.3-0.3 -0.3-0.4-0.5-0.9-0.6-1.3 0-0.1-0.1-0.4-0.3-0.6 -0.1-0.6-0.1-0.9 0.2-1 0.3-0.1 0.6-0.3 0.9-0.5 0.3-4.3 0.9-8.6 1.8-12.8 0.9-3.9 2-7.7 3.1-11.4 1.1-3.6 2.3-7.3 3.4-11.1 1.2-4 2.1-8 2.7-12.1 0.8-1.1 1.5-2.3 1.9-3.7 0.5-1.4 1-2.8 1.5-4.2 0.5-1.4 1.2-2.8 1.8-4.1 0.6-1.3 1.6-2.5 2.8-3.3 1 0.1 1.9 0.4 2.7 1 0.8 0.6 1.9 0.9 2.9 0.8 0.2 0.5 0.4 0.9 0.6 1.4 0.2 0.5 0.4 1 0.7 1.4l1.6-0.4c0.9 0.9 1.6 2 2.1 3.2 0.6 1.3 1 2.6 1.2 4 0.2 1.3 0.2 2.7-0.1 4 -0.3 1.2-1 2.3-2 3 0.1 0.3 0.1 0.7 0.1 1 0 0.2-0.1 0.4-0.2 0.6 -0.1 0.2-0.1 0.4-0.1 0.6 0 0.3 0.2 0.6 0.3 0.8 -1.6 1.7-2.7 3.7-3.2 5.9 -0.7 2.2-1.1 4.5-1.2 6.7 0.9-1.2 1.8-2.3 2.8-3.3 1-1.1 2.1-2.1 3.2-3.2 1.1-1 2.2-2 3.2-2.9 1-0.9 2-1.9 2.8-2.8 2-2.5 4.3-4.8 6.8-6.8 2.2-1.7 4.5-3.7 6.9-5.8 0.4-0.2 0.9-0.2 1.3-0.1 0.3 0.1 0.7 0.3 1 0.5 0-0.6-0.1-0.9-0.4-1s-0.3-0.5-0.3-1.1c1-0.3 1.9-0.8 2.8-1.3 0.8-0.5 1.7-1 2.6-1.5 0.6 0.8 1.2 1.7 1.8 2.6 0.5 0.9 1.4 1.4 2.4 1.6 0.3 0.9 0.7 1.6 1.3 2.3 0.5 0.5 1 1 1.5 1.5 0.5 0.5 1 1.1 1.3 1.7 0.5 1 0.7 2 0.7 3.1 -0.3 0.7-0.6 1.4-0.9 2.1 -0.4 0.9-0.7 1.8-0.9 2.7 -1.3 1.6-2.8 3.1-4.4 4.5 -1.5 1.3-3 2.6-4.5 3.8 -1.5 1.2-3 2.4-4.6 3.7 -1.7 1.3-3.3 2.8-4.8 4.3 -0.4 0.7-0.8 1.2-1.3 1.8 -0.5 0.5-1.1 1-1.7 1.5 -0.6 0.5-1.1 1-1.6 1.6 -0.5 0.6-0.9 1.2-1.2 2 -0.2 0.1-0.4 0.1-0.6 0.1 -0.2 0-0.4 0-0.6 0.1 -0.2 0.6-0.5 1.1-1 1.5 -0.5 0.4-0.8 0.9-0.9 1.5 0.8 2.6 2.3 4.9 4.2 6.9 1.7 1.6 3.6 2.7 5.8 3.4 2.3 0.7 4.6 1.1 7 1.1 2.5 0 5.1 0.1 7.8 0.1 0.3-0.1 0.4-0.4 0.4-0.6 0-0.3 0.1-0.4 0.5-0.4 1.6 0.7 3 1.7 4 3.2 1 1.4 2.1 2.8 3.3 4 0 3.1-0.9 6.2-2.5 8.8C577.1 116.4 575 118.4 572.5 119.7z"/><path d="M636.7 113c-0.5 1.7-1.1 3.3-1.9 4.8 -0.8 1.6-1.7 3-2.9 4.3 -1.1 1.2-2.3 2.3-3.7 3.2 -1.3 0.8-2.8 1.3-4.3 1.4 -0.7-0.2-1.3-0.5-1.9-0.9 -0.3-0.3-0.7-0.6-1-0.9 -0.2-0.2-0.4-0.4-0.6-0.5s-0.3-0.3-0.5-0.4l-1.3-0.7 0.4-1.8c0.2-0.6 0.1-1.2-0.1-1.8 -0.4-0.6-0.8-1.2-1.3-1.8l-0.6-0.8c-0.2-0.3-0.4-0.5-0.5-0.8l-1.8-2.7 2.9-1c1.5-0.4 2.7-1.3 3.6-2.5 0.7-1.6 0.9-3.4 0.7-5.2 -1.2-0.4-2.4-0.4-3.6-0.1 -1 0.3-2 0.6-3 1 -1.3 0.5-2.6 0.9-3.9 1.2 -1.4 0.3-2.9 0.5-4.4 0.5 -0.6 0-1.1 0-1.6-0.1 -0.5 0-1.1-0.1-1.6-0.2l-1.1-0.3c0-0.6-0.2-1.2-0.4-1.8 -0.2-0.2-0.3-0.3-0.4-0.5 -0.4-0.6-0.8-1.2-1.1-1.9 -0.4-1-0.5-2-0.3-3 -0.3-0.8-0.6-1.7-0.6-2.5 -0.4 1.1-0.8 2.3-1 3.5l-0.4 1.4 -1.1 0.3c-0.2 0.2-0.3 0.4-0.3 0.6 -0.1 0.3-0.1 0.5-0.1 0.8l-0.5 2.4c-0.1 0.2-0.3 0.3-0.4 0.5 -0.2 0.2-0.3 0.3-0.4 0.5 -0.1 0.8-0.3 1.7-0.5 2.5 -0.2 0.8-0.4 1.6-0.6 2.4 -0.4 1.2-0.7 2.4-0.9 3.6 -0.2 1.1-0.3 2.3-0.3 3.4l-0.4 1.5c-0.3 0.5-0.7 1-1.2 1.3 -0.4 0.3-0.9 0.6-1.3 0.9 -0.2 0.2-0.4 0.4-0.6 0.5 -0.2 0.1-0.4 0.3-0.6 0.4l-0.3 1.5 -1.3 0.3c-0.8 0.2-1.3 0.3-1.7 0.4 -0.4 0.1-0.7 0.1-1.1 0.1l-1.1-0.1c-0.8-0.8-1.4-1.5-1.8-2 -0.5-0.5-1-1-1.5-1.5 -0.5-0.8-0.9-1.6-1.1-2.5 -0.1-0.6-0.1-1.1-0.2-1.5 -0.1-0.5-0.2-0.9-0.3-1.4 0-0.3-0.1-0.6-0.3-0.8l-1.4-1.7 1.2-1.3 0.1-2.4c1.4-4.8 3-9.3 4.6-13.7 1.6-4.4 3.3-8.9 5-13.5 0.6-1.5 1.1-3 1.7-4.5 0.5-1.5 1.1-3 1.7-4.5 -0.1-0.3-0.1-0.7-0.1-1 0-0.4 0.1-0.8 0.2-1.3 0.8-1.6 1.4-3 1.9-4.3 0.5-1.3 1-2.5 1.5-3.9 0.6-1.6 1.2-3.1 1.8-4.6 0.7-1.6 1.4-3.1 2.3-4.6l1.7-1c0.2-0.1 0.5-0.2 0.8-0.4 0.3-0.1 0.6-0.2 1-0.2l1.6 0.3c2.1-1.3 3.9-3.1 5.3-5.1 1.7-2.5 3.2-5.2 4.6-7.9l1.1-2 1.4 1.1c0.5 0.3 1 0.6 1.5 0.8 0.6 0.2 1.3 0.5 2 0.8 1.2 0.4 2.5 0.8 3.7 1.3 1.1 0.4 2.1 1.2 2.8 2.1 0.3 1.1 0.6 2.2 0.8 3.4 0.1 0.7 0.2 1.5 0.3 2.2 0.2 1.6 0.4 3.2 0.6 4.8s0.3 3.4 0.4 5.3c0.4 1.6 0.7 3.2 0.9 4.7 0.3 1.5 0.5 3.1 0.7 4.7 0.4 2.2 0.7 4.4 1.1 6.5 0.3 2 0.8 4 1.4 6 0.4 0 0.7 0 1.1 0.1 0.4-0.2 0.7-0.3 1.1-0.4 0.4-0.1 0.8-0.2 1.3-0.3l1.2-0.1 0.4 1.4c0.2 0.6 0.5 1.1 1.1 1.4 0.8 0 1.5 0.3 2 0.8 0.4 0.4 0.8 0.9 1.2 1.3 0.2 0.3 0.5 0.6 0.9 0.8l1.6 0.8 -0.9 2.1c-0.8 1.8-1.8 3.4-3.1 4.8 -1.3 1.5-2.8 2.8-4.5 3.9 0.1 0.6 0.1 1.1 0.2 1.6 0 0.5 0.1 1.1 0.3 1.6 0.2 1.6 0.4 3.2 0.5 4.9 0.1 1.7 0.1 3.5 0 5.2L636.7 113zM605.6 88.7c2.1-0.2 4.1-0.4 5.9-0.6 2-0.3 3.9-0.7 5.9-1.2 -0.5-2.8-1-5.7-1.6-8.8 -0.6-3-1.2-6.1-1.8-9l-0.6 1.4c-1.5 2.1-2.9 4.3-4.1 6.6 -1.3 2.4-2.5 4.7-3.4 6.9l-1.3 2.5c-0.4 0.8-0.8 1.7-1.2 2.5 0.4-0.1 0.8-0.1 1.2-0.1 0.4 0 0.8 0 1.1-0.1L605.6 88.7z"/><path d="M700.5 57.3c-1.9 0-3.9 0.2-5.8 0.5 -2.1 0.3-4.1 0.7-6.1 1 -1.4 0.3-2.8 0.5-4.1 0.7 -1.3 0.2-2.5 0.3-3.6 0.4 -0.5 2.1-1 3.9-1.5 5.5 -0.5 1.6-1 3.1-1.6 4.6 -0.6 1.6-1.1 3.2-1.6 4.8 -0.5 1.6-0.9 3.4-1.3 5.3 -0.7 1.5-1.3 2.9-1.8 4.1 -0.5 1.4-0.9 2.8-1.1 4.3 -0.8 1.4-1.5 2.9-1.9 4.4 -0.4 1.5-0.8 2.9-1 4l-0.4 1.7c-0.3 0.4-0.6 0.8-0.8 1.3 -0.1 0.3-0.3 0.7-0.5 0.9 -0.1 1.1-0.3 2.1-0.7 3.1 -0.1 0.4-0.2 0.9-0.3 1.3 -0.1 0.3-0.1 0.6-0.1 0.9 0.1 0.7-0.1 1.3-0.5 1.8 0.1 0.5 0.1 1 0 1.5 -0.1 0.5-0.1 1-0.2 1.5 -0.2 0.9-0.3 1.8-0.2 2.7 0.2 0.4 0.4 0.7 0.6 1 0.2 0.3 0.3 0.7 0.4 1.1 0.3 0.3 0.6 0.5 1 0.7 0.4 0.4 0.8 0.7 1.3 1l1 1.4c0.4 2.2 0.1 4.5-1 6.5 -1.2 1.8-3.3 2.9-5.5 2.7h-1.3c-0.3-0.3-0.5-0.7-0.6-1.1 -0.6-0.3-1-0.5-1.4-0.7 -0.4-0.3-0.8-0.7-1-1.1 -0.9-0.6-1.7-1-2.3-1.4l-1-0.7v-1.7c-0.5-0.9-0.9-1.8-1.2-2.8 -0.2-1-0.4-2-0.6-3.1 -0.1-0.8-0.3-1.6-0.5-2.4 -0.2-0.7-0.4-1.3-0.7-2 -0.2-4.6 0.2-9.2 1.2-13.7 0.9-3.7 1.9-7.3 2.9-10.8 0.6-1.9 1.1-3.8 1.7-5.7 0.6-1.9 1.1-3.9 1.5-6l1-1.4c0.5-1.5 0.9-2.7 1.2-3.7 0.3-1 0.7-2 1-3 0.2-0.7 0.4-1.3 0.6-1.9 0.2-0.6 0.3-1.1 0.5-1.6 -0.4 0-0.8 0-1.2 0.1 -0.4 0-0.7 0.1-1.1 0.2 -0.4 0.1-0.8 0.2-1.2 0.2 -0.4 0-0.7 0.1-1.1 0.1 -0.4 0-0.7 0-1.1-0.1 -0.8 0.5-1.7 0.7-2.6 0.7h-1.1c-0.2 0-0.4 0-0.6-0.1 -0.2 0-0.3-0.1-0.5-0.1 -0.6 0-1.2 0.1-1.7 0.4h-3.5c-0.2 0-0.4 0-0.5 0.1 -0.2 0-0.4 0.1-0.5 0.1 -0.5 0-1.1-0.1-1.6-0.2 -0.7-0.2-1.3-0.5-1.8-0.9 -0.9-1.5-1.4-2.3-1.7-2.4l-1-1.7c-0.1-0.5-0.2-1.1-0.3-1.6 -0.1-0.5-0.3-1.1-0.4-1.8 -0.3-0.9-0.6-1.9-0.8-3 -0.3-1.3-0.4-2.6-0.4-3.9 0-0.6 0.2-1.2 0.4-1.7 0.2-0.4 0.4-0.7 0.5-1l0.3-2.1 1.4 0.1h3c2.3 0 4.6-0.1 7-0.4 2.4-0.2 4.8-0.5 7.3-0.8l4.4-0.6c1.5-0.2 3-0.4 4.6-0.6 0.3-0.8 0.6-1.6 0.9-2.4l1.1-0.7c1-0.2 2 0.1 2.7 0.6 0.5 0.5 0.9 0.9 1.3 1.5 1.6-0.2 3.2-0.4 4.8-0.6s3.2-0.5 4.9-0.9c2.4-0.5 4.9-0.9 7.4-1.3 2.4-0.4 4.8-0.6 7.1-0.6 1 0 1.9 0 2.9 0.1 0.9 0.1 1.7 0.2 2.6 0.4l1.1 1c0.2 0.6 0.5 1.1 0.9 1.5 0.4 0.5 0.8 0.9 1.2 1.4 0.9 1.2 1.8 2.4 2.6 3.7 0.9 1.9 1.3 4.1 1 6.2 -0.3 0.7-0.7 1.4-1.3 2l-1 1.7 -1.1-0.1c-0.4 0-0.8 0.1-1.2 0.2 -0.4 0.1-0.7 0.3-1.1 0.5 -0.3 0.2-0.6 0.3-0.9 0.5 -0.3 0.2-0.6 0.3-1 0.4 -0.5 0-1 0-1.6-0.1C701.3 57.3 700.9 57.3 700.5 57.3z"/><path d="M753.2 45.8c0.1 0.5 0.1 1 0.1 1.5 0 0.3-0.1 0.6-0.1 0.9 0 0.3-0.1 0.6-0.1 0.9 0 0.5 0.1 1 0.2 1.5 -1.1 2.6-2.9 4.9-5.2 6.5 -2 1.2-4.1 2-6.4 2.5 -2.3 0.5-4.6 1-7 1.6 -2.6 0.7-5.1 1.9-7.1 3.7 -0.8-0.5-1.7-0.5-2.5 0 -1 0.5-2.2 0.7-3.3 0.4 -0.4 0.5-1 1-1.6 1.2 -0.6 0.2-1.3 0.5-1.9 0.8 0.3 0.8 0.4 1.7 0.4 2.6 -0.1 0.7 0 1.5 0.3 2.2 2.8 0.3 5.6 0.2 8.3-0.1 3-0.4 6-0.6 9-0.7 0.1 0.5 0 0.8-0.1 0.9 -0.2 0.2-0.2 0.5-0.1 0.8 0.6 0.5 1.1 1.1 1.5 1.8 0.5 0.7 1 1.4 1.5 2 0.4 0.6 1 1.1 1.6 1.6 0.5 0.4 1.2 0.6 1.9 0.5 0.3 0.8 0.5 1.6 0.6 2.5 0.1 0.9 0 1.9-0.3 2.7 -1.1 1-2.3 2.1-3.4 3.2 -1.1 1.1-2.3 2-3.6 2.9 -1.2 0.8-2.6 1.5-4 2 -1.5 0.5-3.1 0.7-4.7 0.6h-0.8c-0.3-0.1-0.5-0.2-0.7-0.4 -0.7 0.5-1.6 0.7-2.4 0.4 -0.8-0.2-1.7-0.1-2.4 0.4 -0.9-0.5-1.9-0.7-2.8-0.6 -1 0.1-2-0.1-3-0.5 -1.2 2-2.2 4.1-3.1 6.3 -1 2.3-1.8 4.7-2.5 7.2 2 0.4 4 0.6 6.1 0.6 1.5-0.1 3.1-0.2 4.6-0.5 1.4-0.2 2.9-0.5 4.4-0.7 1.9-0.2 3.8-0.3 5.7-0.2 1.5-1.1 3.3-1.8 5.1-2 1.9-0.3 3.7-0.8 5.4-1.6 0.6 0.3 1.2 0.8 1.5 1.5 0.4 0.7 0.8 1.4 1.2 2 0.4 0.6 0.8 1.1 1.2 1.6 0.4 0.5 1 0.7 1.6 0.6 0.3 0.4 0.5 0.9 0.6 1.3 0.1 0.5 0.2 1 0.3 1.5 0.1 0.4 0.2 0.8 0.4 1.2 0.2 0.3 0.6 0.5 0.9 0.4 -0.8 2.6-2 5-3.7 7.1 -1.3 1.6-2.9 2.8-4.8 3.7 -1.9 0.9-3.9 1.5-6 2 -2.2 0.5-4.6 1-7.2 1.7 -0.5 0.2-1.1 0.2-1.6-0.1 -0.5-0.2-1-0.4-1.5-0.4 -1.9 0.5-3.9 1-5.9 1.3 -2.3 0.4-4.6 0.5-7 0.4 -2.3-0.1-4.6-0.5-6.8-1.2 -2.1-0.7-3.9-2-5.3-3.7 -0.6-0.7-1-1.5-1.1-2.3 -0.2-0.9-0.7-1.6-1.5-2 -0.1-1.2-0.2-2.6-0.4-4.1 -0.2-1.5-0.4-3.1-0.6-4.7 -0.2-1.6-0.4-3.2-0.5-4.8 -0.1-1.4-0.1-2.9 0.2-4.3 0.2-1.3 0.6-2.6 1.3-3.8 0.7-1.1 0.9-2.4 0.7-3.7 0.4-0.1 0.6-0.4 0.6-0.8 0.1-0.4 0.4-0.6 0.9-0.5 0.4-1.7 0.9-3.3 1.4-4.8 0.5-1.5 1-2.9 1.6-4.3 0.5-1.4 1.1-2.8 1.6-4.3s1.1-3.1 1.6-4.8c-1-1.2-1.7-2.5-2.2-4 -0.5-1.4-0.8-2.9-1-4.3 -0.2-1.5-0.4-2.9-0.5-4.5 -0.1-1.6-0.4-3.2-0.8-4.7 0.6-1.3 1.5-2.5 2.6-3.4 1-0.9 2.2-1.6 3.4-2.2 1.3-0.6 2.6-1.1 4-1.4 1.4-0.4 2.9-0.8 4.5-1.3 2.5-1.1 5.1-2 7.7-2.8 2.3-0.7 4.5-1.2 6.7-1.6s4.5-0.8 6.8-1.2c2.4-0.4 5-0.9 8.1-1.7 0.6 0.8 1.3 1.3 1.8 1.3 0.3-0.8 0.6-1.1 1-0.8 0.4 0.3 0.6 0.1 0.5-0.8 0.6 1.5 1.6 2.8 2.7 4C750.6 44.1 751.8 45.1 753.2 45.8z"/><path d="M753.4 61.6c0.4-1.8 1.3-3.6 2.4-5 1.1-1.3 2.3-2.5 3.7-3.6 1.3-1 2.7-1.8 4.1-2.5 1.4-0.7 2.8-1.2 4.1-1.7 2.9-1.6 5.9-3.1 9.2-4.6 3.3-1.4 6.6-2.7 10-3.9 3.4-1.1 6.9-1.8 10.5-2.2 3.8-0.3 7.7 0.3 11.3 1.8 0.2 0.9 0.5 1.8 1 2.7 0.4 0.8 0.9 1.7 1.3 2.5 0.5 0.8 0.9 1.7 1.2 2.5 0.4 0.8 0.6 1.6 0.6 2.5 0.7 0.8 1.3 1.7 1.7 2.7 0.4 1.2 0.5 2.6 0.2 3.9 -0.7 0.8-1.4 1.4-2.1 2 -0.7 0.6-1.4 1.1-2.2 1.6 -2.6-0.8-5.3-1.1-8.1-0.8 -2.7 0.3-5.2 0.5-7.3 0.7 -0.5-0.8-1.4-1.2-2.3-1.3 -1 0-1.9 0.2-2.8 0.6 -1 0.4-1.9 0.7-2.9 1.1 -0.9 0.4-1.8 0.5-2.7 0.3 -0.7 0.7-1.6 1.3-2.6 1.5 -1 0.2-2.2 0.4-3.4 0.6 -0.1 0.5 0 0.8 0.2 0.9 0.2 0.1 0.3 0.4 0.1 0.9 0.4 0.6 1 1.1 1.7 1.4 0.7 0.3 1.4 0.6 2.1 0.8 0.7 0.3 1.4 0.6 2 1 0.6 0.5 1 1.2 1.2 2 1 0 2 0.3 2.8 1 0.8 0.7 1.5 1.5 1.9 2.4 0.5 1 0.9 2 1.1 3 0.2 0.9 0.4 1.9 0.4 2.9 0.2 0.7 0.5 1.1 0.8 1 0.3-0.1 0.6 0.1 1 0.6 0.3 1.3 0.8 2.6 1.6 3.7 0.9 1.3 1.6 2.7 2 4.1 0.1 2.3 0.3 4.4 0.3 6.2 0.1 1.9-0.2 3.7-0.8 5.5 -1 3.3-2.5 6.4-4.5 9.3 -1.8 2.7-4 5.1-6.4 7.2 -2.4 2.1-4.9 3.9-7.7 5.4 -2.6 1.4-5.2 2.7-7.9 3.8 -0.3-0.1-0.6-0.1-0.9 0 -0.3 0.1-0.4-0.1-0.2-0.7 -0.5 0.6-1.1 1-1.9 1.3 -0.7 0.2-1.5 0.3-2.2 0.2 -0.8 0-1.6-0.1-2.4-0.2 -0.8-0.1-1.6 0-2.3 0.1 -0.5-0.7-0.9-1.3-1.3-1.9 -0.4-0.7-0.7-1.5-0.9-2.3 -0.4 0-0.5-0.2-0.5-0.7s-0.1-0.7-0.4-0.7c0.3-0.5 0.5-1 0.6-1.6 -0.1-0.2-0.2-0.3-0.3-0.4 -0.2-0.1-0.3-0.2-0.5-0.4 -0.2-0.2-0.2-0.4-0.1-0.6 0.3-0.8 0.4-1.7 0.3-2.6 -0.1-1-0.1-2-0.2-3 -0.1-1 0-2 0.2-2.9 0.2-0.9 0.7-1.7 1.6-2.2 2.3 0.4 4.7 0.3 6.9-0.4 2.2-0.6 4.2-1.5 6.2-2.6 1.9-1.1 3.8-2.3 5.5-3.6 1.7-1.3 3.4-2.4 5.2-3.5 0.2-0.7 0.5-1.5 0.9-2.1 0.4-0.5 0.8-1.1 1.2-1.5 0.4-0.5 0.8-1 1.2-1.5 0.4-0.6 0.6-1.4 0.8-2.1 0.1-0.7-0.1-1-0.4-1.2 -0.3-0.1-0.5-0.5-0.5-1l-1.2-0.4c-1.4-1.1-3-1.9-4.6-2.6 -1.5-0.6-3-1.4-4.4-2.3 -0.6 0.5-1.4 0.7-2.2 0.4 -0.9-0.3-1.7-0.6-2.6-0.8 -2.4-0.2-4.7-0.5-7-1 -2.3-0.5-4.5-1.3-6.5-2.5 -0.1-0.4-0.3-0.9-0.5-1.3 -0.2-0.4-0.6-0.5-1.2-0.3 -0.4-0.7-0.9-1.5-1.3-2.2 -0.5-0.7-0.8-1.5-1.2-2.3 0.1-1.1 0.2-2.1 0.3-2.9 0.1-0.8-0.2-1.6-0.6-2.3 0.3-1.2 0.5-2.2 0.6-2.9C753.6 63.6 753.6 62.6 753.4 61.6z"/><path d="M858.8 111.1c0.2 2 0 4.1-0.6 6 -0.5 1.5-1.3 2.9-2.4 4.1 -1 1.1-2.1 2-3.4 2.7 -1.3 0.7-2.5 1.3-3.8 1.8 -0.6-0.5-1.1-1-1.7-1.5 -0.5-0.5-1.2-0.9-1.9-1.2 -0.9-2.2-1.8-4.2-2.7-6 -0.9-1.9-1.3-3.9-1.2-6 0-0.1 0.1-0.6 0.2-1.5 0.1-0.9 0.3-2 0.4-3.1 0.2-1.1 0.3-2.2 0.4-3.2 0.1-1 0.2-1.5 0.2-1.6 -1.8 0.2-3.5 0.7-5.2 1.4 -1.8 0.8-3.5 1.6-5.2 2.7 -1.7 1-3.3 2.1-4.7 3.1 -1.5 1-2.7 1.9-3.6 2.7 -0.1 0.7-0.2 1.4-0.4 2 -0.3 1.1-0.6 2.2-1.1 3.4 -0.4 1.1-0.9 2.1-1.4 3.2 -0.5 0.9-1 1.4-1.5 1.4 0.1 0.3 0.2 0.6 0.3 0.8 0.1 0.4 0.1 0.8 0 1.1 -1 0.4-1.9 0.8-2.7 1.5 -0.8 0.6-1.6 1.1-2.5 1.5 -0.9 0.4-1.8 0.6-2.8 0.6 -1.3-0.1-2.5-0.6-3.5-1.4 0-0.5-0.2-1.1-0.5-1.5 -0.3-0.4-0.7-0.8-1.1-1.1l-1-0.8c-0.3-0.2-0.4-0.4-0.4-0.6 -0.4 0.1-0.5-0.2-0.4-1 0.1-0.7 0.4-0.9 0.9-0.6 -0.7-1.1-1.2-2.2-1.4-3.4 -0.3-1.3-0.7-2.5-1.2-3.7 0.2-0.3 0.3-0.6 0.4-1 0.1-0.5 0.2-0.9 0.3-1.3 0-0.3 0.2-0.6 0.3-0.8 0.1-0.2 0.3-0.1 0.5 0.1 -0.1-0.7-0.1-1.4 0-2.1 0.1-0.6 0.3-1.1 0.4-1.5 0.1-0.5 0.3-0.9 0.3-1.4 0.1-0.5-0.1-1.1-0.3-1.5 1.1-2.1 1.9-4.3 2.3-6.7 0.3-2.2 0.6-4.3 0.6-6.5 0.6-0.9 1.1-1.8 1.3-2.8 0.4-1.2 0.7-2.5 0.9-3.7 0.2-1.2 0.3-2.4 0.3-3.7 0-1-0.1-1.9-0.4-2.9 0.1-0.5 0.5-0.6 1.2-0.4 0.4-3.1 0.7-6.6 0.9-10.5 0.2-3.9 0.5-7.6 0.9-11.1 0.3-3.2 1.1-6.3 2.1-9.3 0.7-2.4 2.5-4.3 4.8-5.3 0.4 1.8 0.9 3.5 1.7 5.2 0.7 1.5 1.4 2.9 2.3 4.3 0.8 1.4 1.6 2.7 2.5 4.1 0.9 1.5 1.7 3.1 2.3 4.8 -0.1 1.8-0.2 3.8-0.4 6.2 -0.2 2.3-0.5 4.7-0.8 7.2 -0.3 2.4-0.6 4.8-1 7 -0.3 2.2-0.6 4.2-0.9 5.7 0.1 0.5 0.3 0.7 0.6 0.8s0.4 0.5 0.2 1.3c1.7-0.6 3.5-1.1 5.4-1.5 1.9-0.5 3.7-1 5.6-1.5 1.9-0.6 3.7-1.2 5.4-1.9 1.7-0.7 3.4-1.6 4.9-2.6 0.4-3.6 0.8-7.3 1.4-10.9 0.6-3.7 0.6-7.5 0.2-11.2 0.4-0.4 0.7-0.9 0.9-1.4 0.2-0.5 0.6-0.9 1.1-1.1 -0.4-1.8-0.5-3.7-0.4-5.6 0.1-1.9 0.3-3.8 0.8-5.6 0.4-1.6 1.1-3.2 2-4.6 0.8-1.2 1.9-2 3.3-2.5 0.8 1.6 1.5 3.2 2 4.8 0.6 1.7 1.2 3.5 1.8 5.2 0.6 1.7 1.3 3.4 1.9 4.9 0.6 1.5 1.5 2.8 2.6 4 0.2 2.7 0.4 5.5 0.5 8.4 0.1 2.9 0.2 5.8 0.3 8.8 -0.6 3.6-1.2 7-1.9 10.3 -0.7 3.5-1.2 7-1.4 10.6 -0.5 0.8-0.9 1.6-1.2 2.5 -0.3 0.9-0.6 1.9-0.9 2.9 -0.3 1-0.6 1.9-1 2.8 -0.3 0.8-0.8 1.6-1.3 2.3 0.3 1 0.3 2.1 0.2 3.2C858 108.8 858.3 110 858.8 111.1z"/><path d="M931.5 82.7c-0.1 1.1 0 2.2 0.2 3.2 0.2 1 0.5 2 0.8 3 0.3 1 0.6 2 0.9 3 0.3 1 0.5 2 0.6 3.1 0.1 1.4 0.1 2.9 0 4.3 -0.1 1.5-0.4 3-0.8 4.5 -0.3 1.4-0.8 2.7-1.4 3.9 -0.5 1-1.2 1.9-2 2.6 -0.9 1.6-2.1 2.9-3.7 3.9 -1.5 1-2.8 2.1-4 3.4 -0.8 0.6-1.7 1.1-2.6 1.4 -1 0.3-2 0.6-3 0.8 -0.9 0.6-1.8 1.2-2.8 1.8 -1.1 0.6-2.2 1.2-3.3 1.7 -1.1 0.5-2.3 0.9-3.4 1.1 -1 0.2-2 0.3-3 0.2 -2 1-4.1 1.7-6.3 2 -2.4 0.3-4.8 0.1-7.1-0.6 -2.4 0.5-4.8 0.3-7.1-0.4 -2.2-0.7-4.2-2-5.8-3.6 -1.8-1.7-3.2-3.7-4.4-5.9 -1.3-2.3-2.3-4.7-3.1-7.2 -0.6-4.8-0.4-9.7 0.4-14.5 0.8-4.1 2-8.2 3.7-12.1 1.5-3.6 3.4-7 5.5-10.2 2.1-3.1 4.1-6.2 6-9.2 0.3 0.2 0.7 0.2 1-0.1 0.3-0.3 0.5-0.6 0.7-1 0.2-0.4 0.4-0.8 0.7-1.2 0.2-0.3 0.5-0.6 0.9-0.7 0.4-1.3 1.2-2.4 2.2-3.2 1-0.8 1.8-1.8 2.3-3 0.6-0.2 1.1-0.4 1.6-0.8 0.4-0.4 0.9-0.8 1.2-1.3 0.4-0.5 0.8-0.9 1.2-1.3 0.4-0.4 0.9-0.7 1.5-0.9v-1.5c1.1-0.6 2.1-1.5 2.8-2.6 0.6-1 1.3-2.2 2.2-3.6 0.5-0.1 1-0.1 1.6-0.1 0.6 0 1.2-0.1 1.8-0.3 0.4-1 0.9-2 1.6-2.9 0.6-0.8 1.3-1.5 2.1-2.1 0.9 0.6 1.8 0.9 2.8 1.1 1.1 0.2 2.1 0.9 2.7 1.8 0 0.8 0.2 1.5 0.6 2.2 0.4 0.5 0.7 1 1.2 1.4 0.4 0.4 0.8 0.9 1.2 1.3 0.4 0.6 0.7 1.2 0.8 2 0.3 0.1 0.5 0 0.6-0.1 0.1-0.2 0.3-0.2 0.6-0.1 0.1 0.9 0.3 1.8 0.8 2.6 0.4 0.8 0.7 1.6 0.9 2.5 -0.4 0.9-0.6 1.9-0.8 2.9 -0.1 0.9-0.6 1.7-1.3 2.2 -0.1 0.7 0.1 1 0.4 1 0.4 0 0.6 0.3 0.6 0.8 0.1 0.6 0 1.3-0.3 1.8 1.8 3.8 3.3 7.6 4.6 11.6C928.2 75.1 929.8 78.9 931.5 82.7zM918.1 96c0.2-0.9 0.6-1.8 1.1-2.5 0.5-0.9 0.8-1.9 0.8-2.9 -0.3-0.6-0.5-1.1-0.6-1.8 -0.1-0.7-0.1-1.4-0.1-2 -1.6-3-3-6.1-4.1-9.3 -1.1-3.2-2.4-6.3-3.9-9.3 -0.2 0.4-0.4 0.8-0.8 1.1 -0.4 0.4-0.7 0.3-1.2-0.3 -0.1 0.6-0.3 1.2-0.8 1.6 -0.3 0.3-0.7 0.5-1.2 0.4 -0.5-0.1-0.9-0.2-1.3-0.4 -0.5-0.2-0.9-0.5-1.2-0.9 -2.1 2.2-4.2 4.3-6.2 6.3 -2.1 2.1-4 4.6-5.6 7.2 -0.3 0.2-0.5 0.3-0.5 0.2 -0.1-0.1-0.3 0-0.6 0.2 -0.5 1.7-1.2 3.3-2.1 4.8 -0.8 1.5-1.6 2.9-2.4 4.4 -0.8 1.5-1.5 3.1-2.1 4.8 -0.6 1.9-0.9 3.9-1 5.9 1.1 1.3 2.6 2.1 4.3 2.4 1.7 0.3 3.4 0.3 5.1 0.1 1.7-0.2 3.5-0.5 5.2-0.9 1.5-0.4 3.1-0.6 4.7-0.6 2.8-0.8 5.4-2.1 7.7-3.7 2.1-1.5 4.4-3.1 6.8-4.7L918.1 96z"/><path d="M977.5 37.8c2.8 0.4 5.5 1.2 8.1 2.4 2.3 1.1 4.3 2.6 6 4.5 1.1 2.3 2.2 4.9 3.3 7.6 2.1 5.6 3.2 11.5 3.1 17.5 -0.1 3.2-0.6 6.4-1.6 9.4 -1.9 3.2-4.5 6-7.6 8.2 -3 2.1-6.2 3.8-9.6 5.1 -3.5 1.3-7.1 2.5-10.7 3.4 -3.7 0.9-7.3 1.9-10.8 2.8 0.1 2.2 0.1 4.4 0.1 6.8 0 2.4-0.2 4.8-0.5 7.2 -0.3 2.3-0.8 4.7-1.4 6.9 -0.6 2.2-1.5 4.2-2.6 6.2 -1.3 0-2.5 0.2-3.8 0.6 -1.3 0.4-2.4 0.8-3.4 1 -0.5-0.4-0.9-0.7-1.3-1 -0.5-0.4-1.1-0.6-1.7-0.6 0.1-1 0-2-0.5-2.9 -0.5-1-1-2-1.5-3 -0.5-0.9-0.8-1.9-1-2.9 -0.2-1 0.2-2 1-2.7 -0.5-0.7-0.8-1.6-0.8-2.5 0.6-1.5 1.1-3 1.3-4.6 0.4-2 0.7-3.9 1-5.8 0.2-1.7 0.3-3.5 0.2-5.3 -0.1-1.5-0.9-2.8-2.1-3.5 0.1-0.2 0.2-0.3 0.4-0.3 0.2 0 0.4 0 0.6-0.1 -0.6-0.6-1-1.5-1.1-2.4 -0.1-0.9-0.4-1.8-0.8-2.7 0.1-0.4 0.2-0.8 0.3-1.3 0.1-0.4 0.3-0.5 0.7-0.4 -0.2-1.6-0.2-3.2 0.1-4.8 0.2-1.5 0.6-2.9 1.1-4.3 0.5-1.4 1.1-2.7 1.8-4 0.7-1.3 1.4-2.6 2-3.9 0.5-0.1 0.8 0 0.9 0.3 0.1 0.3 0.3 0.2 0.7-0.1 0.9-0.8 1.5-1.8 1.9-2.9 0.4-1.1 0.5-2.3 0.5-3.5 0.5-2 1.1-4 1.8-6 0.7-1.9 1.5-3.7 2.4-5.5 0.8-1.6 1.8-3.1 2.8-4.5 0.9-1.2 2-2.2 3.3-2.9 0.9-1 2-1.9 3.2-2.6 1.3-0.8 2.7-1.4 4.2-1.8 1.5-0.4 3-0.7 4.6-0.7 1.4-0.1 2.9 0.2 4.2 0.6 0.4 0.2 0.6 0.1 0.6-0.3S977.3 37.8 977.5 37.8zM973.1 71.3c1.8-1 3.7-1.9 5.7-2.5 2-0.6 3.8-1.8 5.1-3.4 -1-1.2-2.3-2.1-3.8-2.7 -1.7-0.8-3.5-1.3-5.4-1.5 -2-0.2-4 0-5.9 0.6 -2 0.6-3.8 1.8-5.1 3.4 -0.4 1.7-0.8 3-1.1 4 -0.3 1-0.7 2.2-1.2 3.6 0.1 0.4 0.4 0.8 0.7 1 0.3 0.3 0.6 0.6 0.7 1 1.5-1.1 3.2-1.7 5-1.9C969.8 72.9 971.6 72.3 973.1 71.3z"/><path d="M11.4 123.5l0.8-0.1c0.4-0.1 0.8-0.2 1.1-0.4 0.4-0.2 0.7-0.4 1-0.7 0.3-0.3 0.5-0.7 0.7-1.1 0.2-0.5 0.3-1 0.3-1.6 0.1-0.5 0-1-0.1-1.5 -0.1-0.3-0.3-0.6-0.6-0.9 -0.2-0.2-0.6-0.3-0.9-0.4 -0.4 0-0.7 0-1.1 0l-2.6 0.4 -0.7 9.6 1.9-0.3L11.4 123.5zM11.7 118.9l0.6-0.1c0.3-0.1 0.6 0 0.8 0.1 0.2 0.2 0.3 0.6 0.2 0.9 0 0.4-0.1 0.7-0.3 1 -0.2 0.3-0.5 0.4-0.9 0.5l-0.7 0.1L11.7 118.9z"/><path d="M20.2 123l2-0.3 0.2 2 2-0.3 -1.5-9.2 -2.3 0.4 -2.9 9.9 1.9-0.3L20.2 123zM20.9 120.3c0.1-0.5 0.2-1 0.4-1.5 0.1-0.5 0.2-1.1 0.4-1.6h0c0.1 0.5 0.1 1 0.2 1.5 0.1 0.5 0.1 1 0.2 1.5l0.1 0.6 -1.3 0.2L20.9 120.3z"/><path d="M30.5 120.2l0.7-0.1 1 3 2.1-0.3 -1.3-3.5c0.4-0.3 0.7-0.7 0.9-1.2 0.3-0.6 0.4-1.1 0.4-1.8 0.1-0.5 0-1-0.1-1.5 -0.1-0.3-0.3-0.6-0.5-0.8 -0.3-0.2-0.6-0.3-0.9-0.4 -0.4 0-0.7 0-1.1 0l-2.7 0.4 -0.7 9.6 1.9-0.3L30.5 120.2zM30.8 115.9l0.7-0.1c0.3-0.1 0.6 0 0.8 0.1 0.2 0.1 0.3 0.4 0.2 0.8 0 0.7-0.5 1.4-1.2 1.4l-0.7 0.1L30.8 115.9z"/><path d="M41.2 112.2l-1.9 0.3 -0.7 9.6 1.9-0.3L41.2 112.2z"/><path d="M47.9 118.7c-0.3 0-0.6 0-0.8-0.1 -0.3-0.1-0.6-0.3-0.8-0.5l-1.2 1.9c0.3 0.4 0.7 0.7 1.2 0.8 0.4 0.1 0.9 0.2 1.4 0.1 0.4-0.1 0.8-0.2 1.2-0.4 0.4-0.2 0.7-0.5 0.9-0.8 0.3-0.3 0.5-0.7 0.6-1.1 0.1-0.4 0.2-0.8 0.3-1.2 0.1-0.5 0-1.1-0.2-1.6 -0.2-0.4-0.5-0.7-1-0.8l-0.8-0.3c-0.3-0.1-0.5-0.2-0.7-0.3 -0.2-0.1-0.3-0.3-0.2-0.5 0-0.2 0.1-0.4 0.2-0.5 0.2-0.1 0.4-0.2 0.6-0.3 0.2 0 0.5 0 0.7 0.1 0.2 0.1 0.5 0.2 0.7 0.4l1.1-1.7c-0.3-0.4-0.6-0.6-1.1-0.8 -0.4-0.1-0.8-0.2-1.2-0.1 -0.4 0.1-0.8 0.2-1.1 0.4 -0.3 0.2-0.6 0.5-0.9 0.8 -0.3 0.3-0.5 0.7-0.6 1 -0.2 0.4-0.3 0.8-0.3 1.2 0 0.3 0 0.6 0 0.9 0.1 0.2 0.1 0.5 0.3 0.7 0.1 0.2 0.2 0.4 0.4 0.5 0.2 0.1 0.3 0.2 0.5 0.3l0.9 0.4 0.4 0.1c0.1 0 0.2 0.1 0.3 0.2 0.1 0 0.1 0.1 0.2 0.2 0 0.1 0.1 0.2 0 0.3 0 0.2-0.1 0.4-0.2 0.5C48.3 118.5 48.1 118.6 47.9 118.7z"/><path d="M65.9 114.1l-2.7-2.3 -3.1 3.3 2.7 2.3L65.9 114.1z"/><path d="M76.2 116.3c0.3-0.1 0.6-0.2 0.9-0.4 0.3-0.2 0.5-0.5 0.7-0.8h0l0 0.8 1-0.2 0.8-10.4 -1.3 0.2 -0.2 2.6 0 1.2c-0.2-0.2-0.4-0.4-0.6-0.5 -0.2-0.1-0.5-0.1-0.8-0.1 -0.3 0.1-0.6 0.2-0.9 0.4 -0.3 0.2-0.6 0.5-0.8 0.9 -0.3 0.4-0.5 0.8-0.6 1.3 -0.2 0.5-0.3 1.1-0.3 1.6 -0.1 0.9 0 1.8 0.4 2.7C74.9 116.1 75.6 116.4 76.2 116.3zM76 110.8c0.2-0.4 0.5-0.6 0.9-0.7 0.2 0 0.4 0 0.5 0 0.2 0.1 0.4 0.2 0.5 0.4l-0.2 3.4c-0.2 0.5-0.7 0.8-1.2 1 -0.4 0.1-0.7-0.1-0.9-0.5 -0.2-0.6-0.3-1.2-0.2-1.7 0-0.6 0.2-1.3 0.5-1.8V110.8z"/><path d="M84.3 114c0.2 0.3 0.5 0.5 0.8 0.6 0.3 0.1 0.7 0.2 1 0.1 0.4-0.1 0.7-0.2 1-0.4 0.3-0.2 0.6-0.4 0.9-0.7l-0.4-1c-0.2 0.2-0.4 0.3-0.6 0.5 -0.2 0.1-0.4 0.2-0.7 0.2 -0.4 0.1-0.8 0-1-0.3 -0.3-0.4-0.4-0.9-0.4-1.4l3.4-0.5c0-0.1 0-0.2 0.1-0.4 0-0.1 0-0.3 0.1-0.5 0-0.5 0-0.9 0-1.4 0-0.4-0.2-0.7-0.3-1 -0.1-0.3-0.4-0.5-0.6-0.6 -0.3-0.1-0.6-0.2-1-0.1 -0.3 0.1-0.7 0.2-0.9 0.4 -0.3 0.2-0.6 0.5-0.9 0.9 -0.3 0.4-0.5 0.8-0.6 1.3 -0.2 0.5-0.3 1.1-0.3 1.6 0 0.5 0 1 0.1 1.6C83.9 113.3 84 113.7 84.3 114zM85.5 109c0.2-0.3 0.5-0.5 0.9-0.6 0.3-0.1 0.6 0.1 0.8 0.3 0.2 0.4 0.2 0.8 0.2 1.3l-2.4 0.4C85.1 109.9 85.3 109.5 85.5 109z"/><path d="M91.7 114.2l0.1-1.2c0.2 0.2 0.4 0.4 0.6 0.5 0.2 0.1 0.5 0.1 0.7 0.1 0.3-0.1 0.6-0.2 0.9-0.4 0.3-0.2 0.6-0.5 0.8-0.9 0.3-0.4 0.5-0.8 0.6-1.3 0.2-0.5 0.3-1.1 0.3-1.7 0-0.5 0-1 0-1.5 0-0.4-0.2-0.8-0.3-1.1 -0.1-0.3-0.3-0.5-0.6-0.6 -0.3-0.1-0.6-0.2-0.9-0.1 -0.3 0.1-0.6 0.2-0.9 0.4 -0.3 0.2-0.6 0.5-0.8 0.8h0l0-0.8 -1 0.2 -0.7 10.1 1.3-0.2L91.7 114.2zM92.1 108.4c0.3-0.5 0.7-0.8 1.2-1 0.4-0.1 0.7 0.1 0.8 0.5 0.2 0.5 0.2 1.1 0.2 1.6 0 0.7-0.2 1.3-0.5 1.9 -0.2 0.4-0.5 0.7-1 0.8 -0.2 0-0.3 0-0.5 0 -0.2-0.1-0.4-0.2-0.5-0.4L92.1 108.4z"/><path d="M99.4 112.6c0.4-0.1 0.7-0.2 1-0.5 0.3-0.3 0.6-0.6 0.8-1h0l0 1 1-0.2 0.5-7.2 -1.3 0.2 -0.4 5c-0.2 0.3-0.4 0.6-0.6 0.9 -0.2 0.2-0.4 0.3-0.6 0.3 -0.2 0.1-0.5 0-0.6-0.3 -0.1-0.4-0.2-0.8-0.1-1.2l0.3-4.3 -1.3 0.2 -0.3 4.5c-0.1 0.7 0 1.4 0.2 2.1C98.4 112.5 98.9 112.7 99.4 112.6z"/><path d="M106.3 102.9c0.2 0 0.4-0.2 0.6-0.4 0.2-0.2 0.3-0.5 0.3-0.7 0-0.2 0-0.5-0.2-0.7 -0.1-0.2-0.3-0.2-0.5-0.2 -0.2 0-0.4 0.2-0.6 0.4 -0.2 0.2-0.3 0.5-0.3 0.7 0 0.2 0 0.5 0.2 0.7C105.9 102.9 106.1 103 106.3 102.9z"/><path d="M106.8 104.1l-1.3 0.2 -0.5 7.2 1.3-0.2L106.8 104.1z"/><path d="M110.6 109.5c-0.3 0-0.5 0-0.8-0.1 -0.3-0.1-0.5-0.3-0.7-0.5l-0.7 1.2c0.3 0.2 0.6 0.4 0.9 0.6 0.3 0.1 0.7 0.2 1.1 0.1 0.3 0 0.6-0.2 0.9-0.3 0.3-0.2 0.5-0.4 0.7-0.6 0.2-0.2 0.3-0.5 0.5-0.8 0.1-0.3 0.2-0.6 0.2-0.9 0-0.3 0-0.6-0.1-0.8 -0.1-0.2-0.2-0.4-0.3-0.6 -0.1-0.1-0.3-0.3-0.5-0.3 -0.2-0.1-0.3-0.2-0.5-0.2 -0.1 0-0.3-0.1-0.4-0.1 -0.1 0-0.2-0.1-0.3-0.2 -0.1-0.1-0.2-0.1-0.2-0.2 -0.1-0.1-0.1-0.2-0.1-0.4 0-0.2 0.1-0.4 0.2-0.6 0.2-0.2 0.4-0.3 0.6-0.3 0.2 0 0.4 0 0.6 0.1 0.2 0.1 0.4 0.2 0.5 0.4l0.7-1.1c-0.2-0.2-0.5-0.4-0.7-0.5 -0.3-0.1-0.7-0.2-1-0.1 -0.6 0.1-1.1 0.4-1.5 0.8 -0.4 0.5-0.6 1-0.6 1.6 0 0.3 0 0.5 0.1 0.8 0.1 0.2 0.2 0.4 0.3 0.5 0.1 0.1 0.3 0.3 0.5 0.3 0.2 0.1 0.3 0.2 0.5 0.2 0.1 0.1 0.3 0.1 0.4 0.2 0.1 0 0.2 0.1 0.4 0.2 0.1 0.1 0.2 0.2 0.2 0.3 0.1 0.1 0.1 0.2 0.1 0.4 0 0.2-0.1 0.5-0.3 0.7C111.1 109.3 110.9 109.5 110.6 109.5z"/><path d="M122.4 107.3l-1.4 0.2 0.6-8 -0.9 0.2c-0.2 0.2-0.5 0.4-0.7 0.6 -0.3 0.2-0.6 0.3-0.9 0.5l-0.1 1.1 1.3-0.2 -0.5 6.1 -1.6 0.3 -0.1 1.4 4.2-0.7L122.4 107.3z"/><path d="M127.7 105.9c-0.1 0.3-0.3 0.5-0.6 0.7 -0.2 0.1-0.4 0.2-0.6 0.3 -0.2 0-0.4 0-0.6-0.1 -0.2-0.1-0.4-0.2-0.5-0.4l-0.8 1.1c0.2 0.3 0.4 0.5 0.7 0.6 0.3 0.2 0.7 0.2 1.1 0.1 0.4-0.1 0.7-0.2 1.1-0.5 0.4-0.3 0.7-0.6 0.9-1.1 0.3-0.5 0.6-1.1 0.7-1.7 0.2-0.8 0.4-1.6 0.4-2.4 0.1-0.7 0-1.3-0.1-2 -0.1-0.5-0.2-0.9-0.4-1.3 -0.2-0.3-0.4-0.5-0.7-0.7 -0.3-0.1-0.6-0.2-0.9-0.1 -0.3 0.1-0.6 0.2-0.9 0.3 -0.3 0.2-0.5 0.4-0.7 0.7 -0.2 0.3-0.4 0.7-0.5 1 -0.1 0.4-0.2 0.9-0.3 1.3 0 0.4 0 0.8 0.1 1.3 0.1 0.3 0.2 0.6 0.4 0.8 0.2 0.2 0.4 0.4 0.6 0.4 0.3 0.1 0.5 0.1 0.8 0 0.3-0.1 0.6-0.2 0.8-0.4 0.3-0.3 0.6-0.6 0.8-0.9 0 0.6-0.1 1.1-0.3 1.7C128 105.2 127.8 105.6 127.7 105.9zM127.8 102.9c-0.2 0.2-0.4 0.3-0.7 0.4 -0.3 0.1-0.6 0-0.8-0.3 -0.2-0.4-0.3-0.8-0.2-1.2 0-0.5 0.2-0.9 0.4-1.4 0.2-0.3 0.4-0.5 0.8-0.6 0.3-0.1 0.7 0.1 0.8 0.4 0.3 0.5 0.4 1.1 0.3 1.7C128.3 102.3 128 102.6 127.8 102.9z"/><path d="M132 106.6c0.2 0.2 0.4 0.3 0.7 0.4 0.3 0.1 0.6 0.1 0.9 0 0.3-0.1 0.7-0.2 1-0.3 0.3-0.2 0.6-0.4 0.8-0.7 0.2-0.3 0.4-0.6 0.5-0.9 0.1-0.3 0.2-0.7 0.2-1 0-0.3 0-0.6 0-0.8 0-0.2-0.1-0.4-0.2-0.6 -0.1-0.2-0.2-0.3-0.3-0.5 -0.1-0.1-0.3-0.2-0.4-0.3v-0.1c0.1-0.1 0.3-0.3 0.4-0.4 0.1-0.2 0.2-0.4 0.3-0.5 0.1-0.2 0.2-0.4 0.3-0.6 0.1-0.2 0.1-0.4 0.1-0.7 0-0.3 0-0.7-0.1-1 -0.1-0.3-0.2-0.5-0.4-0.7 -0.2-0.2-0.4-0.3-0.6-0.4 -0.3-0.1-0.6-0.1-0.8 0 -0.3 0.1-0.6 0.2-0.9 0.3 -0.3 0.2-0.5 0.4-0.7 0.6 -0.2 0.3-0.4 0.5-0.5 0.8 -0.1 0.3-0.2 0.7-0.2 1.1 -0.1 0.4 0 0.8 0.2 1.2 0.1 0.3 0.4 0.6 0.6 0.8v0.1c-0.2 0.1-0.4 0.3-0.5 0.5 -0.2 0.2-0.3 0.4-0.4 0.6 -0.1 0.2-0.2 0.5-0.3 0.7 -0.1 0.3-0.1 0.5-0.2 0.8 0 0.3 0 0.7 0.1 1C131.6 106.2 131.8 106.4 132 106.6zM133.6 99c0.2-0.2 0.4-0.4 0.7-0.4 0.3-0.1 0.6 0 0.7 0.3 0.2 0.3 0.2 0.6 0.2 1 0 0.3-0.1 0.6-0.2 0.9 -0.1 0.3-0.3 0.6-0.5 0.8 -0.2-0.1-0.4-0.1-0.5-0.2 -0.2-0.1-0.3-0.2-0.4-0.3 -0.1-0.1-0.2-0.3-0.3-0.4 -0.1-0.2-0.1-0.4-0.1-0.6 0-0.4 0.1-0.7 0.3-1H133.6zM132.9 103.5c0.2-0.3 0.4-0.6 0.6-0.9 0.2 0.1 0.4 0.2 0.6 0.3 0.2 0.1 0.4 0.2 0.5 0.3 0.1 0.1 0.2 0.3 0.3 0.4 0.1 0.2 0.1 0.4 0.1 0.6 0 0.4-0.2 0.8-0.4 1.1 -0.2 0.3-0.5 0.4-0.9 0.5 -0.3 0.1-0.7 0-0.9-0.3 -0.2-0.3-0.4-0.7-0.3-1.1 0-0.4 0.1-0.7 0.3-1L132.9 103.5z"/><path d="M141.1 103.8c-0.1 0.3-0.3 0.5-0.6 0.7 -0.2 0.1-0.4 0.2-0.6 0.3 -0.2 0-0.4 0-0.6-0.1 -0.2-0.1-0.4-0.2-0.5-0.4l-0.8 1.1c0.2 0.3 0.4 0.5 0.7 0.6 0.3 0.2 0.7 0.2 1.1 0.1 0.4-0.1 0.8-0.2 1.1-0.5 0.4-0.3 0.7-0.6 1-1.1 0.3-0.5 0.6-1.1 0.7-1.7 0.2-0.8 0.4-1.6 0.4-2.4 0.1-0.7 0-1.3-0.1-2 -0.1-0.5-0.2-0.9-0.4-1.3 -0.2-0.3-0.4-0.5-0.7-0.7 -0.3-0.1-0.6-0.2-0.9-0.1 -0.3 0.1-0.6 0.2-0.9 0.3 -0.3 0.2-0.5 0.4-0.7 0.7 -0.2 0.3-0.4 0.7-0.5 1 -0.1 0.4-0.2 0.9-0.3 1.3 0 0.4 0 0.8 0.1 1.3 0.1 0.3 0.2 0.6 0.4 0.8 0.2 0.2 0.4 0.4 0.6 0.4 0.3 0.1 0.5 0.1 0.8 0 0.3-0.1 0.6-0.2 0.8-0.4 0.3-0.3 0.6-0.6 0.8-0.9 0 0.6-0.1 1.1-0.3 1.7C141.5 103.1 141.3 103.4 141.1 103.8zM141.2 100.7c-0.2 0.2-0.4 0.3-0.7 0.4 -0.3 0.1-0.6 0-0.8-0.3 -0.2-0.4-0.3-0.8-0.2-1.2 0-0.5 0.2-0.9 0.4-1.4 0.2-0.3 0.4-0.5 0.8-0.6 0.3-0.1 0.7 0.1 0.8 0.4 0.3 0.5 0.4 1.1 0.3 1.7 -0.2 0.3-0.4 0.7-0.7 0.9H141.2z"/><path d="M153.3 81.9c-0.4-0.3-1-0.5-1.5-0.4l-12.9 2.2c0-2.4-0.1-5-0.1-7.8 0-10.6-0.2-48.3-0.3-56.4 0-0.9-0.5-1.8-1.4-2.3C119.1 7.9 99.4 2 79 0c0 0-0.2 0-0.5 0C58.3 2 38.7 7.8 20.7 17.1c-1.1 0.6-1.7 1.7-1.7 2.9 -0.1 8.9-0.3 45.5-0.3 55.9 0 8.2-0.7 14.7 1.5 20.6L1 107.5c-0.6 0.3-1 0.9-1 1.6v27.6c0 0.5 0.2 1.1 0.7 1.4 0.3 0.3 0.8 0.4 1.2 0.4 0.1 0 0.2 0 0.3 0l50.1-8.6c8.1 6.2 16.8 11.5 26.1 15.8 0.6 0.3 1.2 0.3 1.8 0 8-3.8 15.7-8.3 22.8-13.5l49.8-19.6c0.1 0 0.1-0.1 0.2-0.1 0.1 0 0.2-0.1 0.2-0.2 0.1-0.1 0.1-0.1 0.2-0.2 0.4-0.3 0.6-0.8 0.6-1.3V83.3C154 82.8 153.7 82.3 153.3 81.9zM23.2 79.9c0-1.4 0.1-2.8 0.1-4.3 0-9.2 0.2-40.9 0.2-50.4 0-1.6 0.9-3.1 2.3-3.8C41.8 13.2 59.2 8 77.1 6l0 0c1.1-0.1 2.3-0.1 3.5 0 18 2 35.4 7.3 51.4 15.6 1.2 0.7 1.9 1.9 1.9 3.2 0.1 9.6 0.2 41.6 0.2 50.7 0 1.5 0 2.9 0.1 4.3 0 1.6 0 3.1 0 4.6l-2.8 0.5c0-1.6 0-3.2 0-5 0-1.4-0.1-2.8-0.1-4.4 0-9.2-0.2-41.1-0.2-50.7 0-0.3-0.2-0.7-0.5-0.8 -16.1-8.4-33.7-13.6-51.8-15.4H78.7h-0.1c-18 1.8-35.5 6.9-51.5 15.2 -0.5 0.3-0.8 0.8-0.8 1.4 -0.1 9.5-0.2 41.1-0.2 50.3 0 1.5 0 3-0.1 4.4 -0.2 8.3-0.3 14.3 5.5 20 0.6 0.6 1.2 1.2 1.9 1.9l-3.3 0.6c-0.2-0.2-0.4-0.4-0.5-0.5 -6.6-6.5-6.4-13.3-6.3-22L23.2 79.9zM63.4 70.2c0.2 2.6 2.4 3.6 2.6 6 0.1 0.9 0.3 1.9 0.7 2.7 0.1 0.3 0.3 0.5 0.5 0.8 0.4 0.4 0.2 1.7 0.2 2.3 -0.1 1-0.1 2.1 0 3.1 0.1 0.8-0.2 1.3-2.4 2 -1.2 0.5-2.6 0-3.1-1.2 -0.1-0.2-0.1-0.4-0.2-0.6 -0.1-0.8-0.4-2.9-0.4-4.1 0-0.3 0-0.7 0-1.1 -0.9 0-1.8-0.1-2.6-0.5 -0.5-0.5-0.8-1.3-0.6-2 0.5-1.7 0.5-3.6 0.1-5.3 -0.6-1.7-0.4-3.4-0.9-4.8 -0.5-1.4-0.3-4.2-1-4.9 -0.1-0.1-0.1-0.3 0.1-0.5 -0.3-0.3-0.2-0.7-0.4-1 -0.2-0.5-0.2-1-0.1-1.5 0 0 0.3-2 0.3-2.6 0.3-1.4 0.4-2.8 0.2-4.2 -0.2-1.9 0-3.8 0.4-5.6 0.2-0.5 0.1-1-0.2-1.5 -0.2-0.1-1.3 0.9-2.3 1 -0.5 0.2-1.1-0.2-1.5-0.7 -2.9 0.6-5.8 1.4-8.6 2.3 -2.5 0.7-4.9 2-6.8 3.7 -1.1 0.8-1 2.9-3.1 3.3s-2.5 0-2.6-0.4 0.5-0.4 0.4-1c-0.1-0.7-0.4-0.5-0.5-0.8 -0.1-0.3-0.1-1.6-0.1-2.2 0-0.6 1.5-0.8 1.5-0.8 2.1 0 4-1.9 5.7-3 2.8-1.7 5.7-3.2 8.8-4.5 1.2-0.3 2.3-0.6 3.5-0.7 0-0.3 0.1-0.6 0.3-0.8 1.5-1.3 3.2-2.2 5.1-2.8 1.2-0.6 2.2-1.5 3-2.6 1-0.9 2.4-1.5 3.8-1.5 1.2-0.2 1-0.1 1.6-1.4 0.6-1.3 2-1 2.6-1.5 0.6-0.4 0.6-3.2 2.7-3.9 2.3-0.6 4.8 0.4 6 2.4 1.2 2.2 1.7 4.7 1.3 7.2 1.4 0.1 2.6 1 3.6 0.7 1.3-0.4 1.1-0.4 2.4 0.5 0.3 0.2 0.5 0.4 0.6 0.7 2-0.2 3.9-0.2 5.9-0.1 1.6 0.2 8.7 1.3 9 1.5 0.6 0.4 1.3 0.3 1.8-0.1 1.7-0.8 3.4-1.4 5.3-1.6 0.5 0.2 0.4 0.8 0 0.7 -0.6 0-1.2 0.2-1.7 0.6 0 0-0.1 0.2 0.7 0.3s1.3 0.4 1.2 0.5c0 0.4-0.4 0.7-0.8 0.8 -0.6 0.1-1.4-0.4-1.9 0 -0.5 0.4-0.1 0.6 0.6 0.8s1.1 0.3 1.4 0.8c0.2 0.4 0.1 0.6-0.4 0.6 -0.5-0.1-1.9-0.8-2.4-0.5 -0.5 0.2-0.9 0.9-1.6 1.1 -0.7 0.1-2.6-0.4-5.4-0.7 -2.5-0.3-9.8-0.7-12.4-0.7 -0.2 0.2-0.4 0.3-0.7 0.3 -1.3 0.2-2.6 0.1-3.9-0.2 -0.8-0.3-1.7-0.3-2.1 0.5 -0.4 0.8-0.7 0.6-1.5 0.6 -0.8 0.1-1 0.4-1 0.4 -0.1 0.8-0.5 1.4-1.2 1.9 -0.6 0.5-0.8 1-0.6 2.4 0.2 0.9-0.3 1.8-1.1 2.3 -0.4 0.3-0.5 0.8-0.2 1.2 0.1 0.1 0.1 0.1 0.2 0.2 0.1 0.1 0.2 0.1 0.3 0.2 1.6-1.4 4.3-3.6 6.3-4.9 2.9-2 6.6-2.7 8.5-0.1s2.4 3.7 2.4 4.7c1.3 1.5 4.8 4 4.8 4.4 0.4 0.9 0.7 1.8 0.8 2.8 1.8-0.3 3.5-1.1 4.9-2.2 0.6-0.7 1.6-0.7 2.3-0.1 0.1 0.1 0.3 0.3 0.4 0.5 0.4 1.4 0.1 2.9-0.8 4 -1.2 1.5-2.2 3.1-3.1 4.8 -0.3 0.9-0.7 1.7-1.1 2.5 -0.5 1-1.1 1.8-2.9 0.6 -1-0.5-1.8-1.4-2.3-2.4 -0.1-0.4-0.1-0.9-0.1-1.3 -1.9-0.5-2.9-3.4-4-4.5 -1.3-1.5-2.4-3.2-3.1-5.1 0-0.5-2-2.4-4 0 -2.4 2.6-4.9 5-7.7 7.1 -0.9 0.7-0.7 1.1-3 2.5 -2.3 1.4-2.5 2.1-4 2.2l-1.5 0.1c0 0-1-0.5-0.8 2.1L63.4 70.2zM83.4 88.7c-0.8-0.3-1.3-1.2-1-2 0.3-0.8 1.2-1.2 2-0.9 0.8 0.3 1.3 1.2 1 2 -0.1 0.2-0.2 0.3-0.3 0.5l0.5 0.4c0.4-0.4 0.7-0.6 0.7-0.6s10.9-10 16.3-14.9l0-1.1c-0.9 0.1-1.8-0.5-1.9-1.4 -0.1-0.9 0.5-1.7 1.5-1.9 0.9-0.1 1.8 0.5 1.9 1.4 0 0 0 0.1 0 0.1 0 0.5-0.1 0.9-0.4 1.2l0.1 0.6c0.7-0.7 1.3-1.2 1.6-1.5 1.5-1.6 3.5-2.5 5.7-2.6 1.6-0.2 3 0.8 3.3 2.4 0 0.1 0 0.2 0 0.4 0 1.4-2.5 3.9-4 4.8 -1.3 1-2.5 2-3.6 3.2l-10.2 10c0 0-1.5 1.3-3.3 2.9l-11.9 2c0.9-1.3 1.8-2.6 3-3.7L83.4 88.7zM21.8 99.8c0.8 1.3 1.7 2.5 2.8 3.6l-12.8 2.2L21.8 99.8zM80.6 139.8c-0.9 0.4-1.9 0.4-2.8 0 -6.6-3.1-12.9-6.7-18.9-10.9l3.9-0.7c5.2 3.4 10.6 6.4 16.2 9.1 0.1 0.1 0.3 0.1 0.4 0 9.3-4.3 18-9.8 25.8-16.4l5.3-0.9C101.6 128 91.5 134.7 80.6 139.8zM112.5 124.6c2.3-2.1 4.4-4.1 6.4-6l15.9-2.7L112.5 124.6zM150.3 109.4L3.7 134.6v-23.9l146.6-25.2V109.4z"/>
</svg>
