<?xml-stylesheet type="text/css" href="../../style/style.css" ?>
<svg class="svg logo-round" viewBox="0 0 1000 942" xmlns="http://www.w3.org/2000/svg">
  <style>
    .svg.logo-round {
      fill: #f2f2f2;
    }
  </style>
	<path d="M312.5 137.4c-0.3-1.1-1.1-2-2.3-2.3 -1.3-0.2-2.6-0.1-3.8 0.5l-2.6 1 2.9 7.7 2.8-1c1.3-0.3 2.4-1.2 3-2.3C313 139.7 313 138.5 312.5 137.4z"/><path d="M343.7 127.7c-0.9-1.5-1.8-3-2.6-4.4l-0.2 0.1c0.2 1.6 0.3 3.3 0.5 5.1 0.2 1.8 0.3 3.4 0.4 4.9l0.2 2.2 5.5-1.7 -1.2-1.9C345.5 130.7 344.6 129.3 343.7 127.7z"/><path d="M593.3 110c-0.4-0.7-1.1-1.1-1.8-1.1 -0.7-0.1-1.4 0-2 0.3 -0.7 0.4-1.2 1.1-1.4 1.8l5.5 0.9C593.6 111.3 593.5 110.7 593.3 110z"/><path d="M566.7 114.8c0.4 0.1 0.9 0 1.3-0.1 0.5-0.2 0.9-0.5 1.2-0.9l0.9-6.7c-0.3-0.4-0.7-0.7-1.1-0.9 -0.4-0.2-0.8-0.3-1.3-0.3 -0.7-0.1-1.4 0.2-1.9 0.8 -0.8 0.9-1.2 2.1-1.2 3.3 -0.3 1.2-0.2 2.5 0.3 3.6C565.2 114.2 565.9 114.7 566.7 114.8z"/><path d="M744.8 145.7c-0.5-0.2-1.1-0.2-1.6 0 -0.6 0.3-1 0.8-1.2 1.4 -0.3 0.7-0.2 1.5 0.2 2.1 0.6 0.8 1.2 1.5 2 2.2 0.9-0.6 1.6-1.4 2-2.4 0.3-0.6 0.3-1.4 0.1-2C745.9 146.4 745.4 145.9 744.8 145.7z"/><path d="M766.9 156.5c0-0.5-0.1-1-0.3-1.5 -0.1-0.3-0.3-0.7-0.6-0.9 -0.2-0.2-0.5-0.4-0.8-0.5 -0.6-0.2-1.3-0.2-1.9 0 -0.8 0.5-1.4 1.2-1.6 2.1 -0.2 0.4-0.3 0.9-0.3 1.4 0 0.3 0.1 0.7 0.2 1 0.1 0.3 0.4 0.5 0.6 0.7 0.3 0.2 0.6 0.4 0.9 0.5 0.5 0.2 1.1 0.3 1.7 0.2 0.7-0.1 1.3-0.5 1.8-0.9C766.9 157.9 767 157.2 766.9 156.5z"/><path d="M724.5 141.2c0-0.5-0.1-1-0.3-1.4 -0.1-0.3-0.3-0.6-0.6-0.9 -0.2-0.2-0.5-0.3-0.8-0.5 -0.6-0.2-1.3-0.2-1.9 0.1 -0.8 0.5-1.4 1.3-1.6 2.2 -0.2 0.4-0.3 0.9-0.2 1.4 0 0.3 0.1 0.7 0.3 1 0.2 0.3 0.4 0.5 0.6 0.7 0.3 0.2 0.6 0.3 0.9 0.4 0.6 0.2 1.2 0.2 1.7 0.1 0.7-0.2 1.3-0.5 1.8-1C724.5 142.6 724.6 141.9 724.5 141.2z"/><path d="M742.3 156.7c-0.3-0.4-0.7-0.8-1.1-1.2 -0.4-0.4-0.9-0.9-1.5-1.4 -0.5 0.3-0.9 0.7-1.3 1.1 -0.4 0.4-0.7 0.9-0.9 1.5 -0.3 0.7-0.3 1.6 0.1 2.3 0.4 0.7 1.1 1.1 1.8 1.4 0.6 0.2 1.3 0.3 1.9 0.1 0.7-0.3 1.2-0.8 1.4-1.5 0.1-0.4 0.2-0.8 0.1-1.1C742.7 157.4 742.5 157.1 742.3 156.7z"/><path d="M610.8 122c0.4 0.2 0.8 0.3 1.2 0.4 0.8 0.1 1.6-0.1 2.1-0.6 1.5-1.9 2.1-4.4 1.6-6.8 -0.3-0.7-0.9-1.3-1.7-1.4 -0.4-0.1-0.9-0.1-1.4 0 -0.5 0.2-1 0.4-1.4 0.8l-1.4 6.6C610 121.4 610.4 121.7 610.8 122z"/><path d="M382.9 112.6c-1.3-0.3-2.6-0.2-3.8 0.2l-2.9 0.8 2 7.4 2.9-0.8c3.2-0.8 4.5-2.6 3.8-5.2C384.6 113.8 383.9 112.9 382.9 112.6z"/><path d="M42 756c0.3 0.7 0.6 1.3 0.9 1.8 0.3 0.6 0.5 1.2 0.7 1.8l0.2 1.5 1.3 0.2c0.4 0 0.9 0.5 1.5 1.4l0.9 0.9c0.8 0.4 1.6 0.6 2.4 0.6 0.7 0 1.3 0 2-0.1l1.3-0.2 1.3-0.2 1-0.2c0.3 0 0.9-0.2 1.9-0.3 0.6-0.4 1.3-0.6 2-0.7l1.3-0.2 1.3-0.2c0.5-0.1 1-0.2 1.5-0.3 0.6-0.2 1.1-0.5 1.5-0.9 0.5 0 1 0 1.4-0.1 0.9-0.2 1.8-0.4 2.6-0.8 0.4-0.2 0.8-0.3 1.2-0.4 0.4-0.1 0.9-0.2 1.3-0.3 0 0.6-0.1 1.3-0.2 1.9 -0.1 0.7-0.3 1.5-0.5 2.2 -0.2 1.2-0.5 2.4-0.6 3.5 -0.2 1.1-0.2 2.3 0 3.4 -0.3 0.3-0.6 0.7-0.8 1.1l-0.9 1.6c-0.1 2.4-0.3 4.7-0.6 7 -0.3 2.3-0.6 4.6-1 6.8 -0.6 4.2-1.1 8.4-1.5 12.7 -0.3 5.3 0.1 10.5 1.2 15.7 0.5 0.6 0.9 1.3 1.2 2l1 2.5c0.4 1.2 0.9 2.3 1.4 3.4 0.5 1.1 1.1 2 1.9 2.9 0.1 0.3 0.1 1 0.2 1.9l1.3 0.6c0.6 0.3 1.2 0.5 1.9 0.6 0.2 0.1 0.4 0.2 0.6 0.2 0.2 0 0.4 0.1 0.6 0.2 0.4 0.5 0.8 0.8 1.4 1.1 0.5 0.1 1.1 0.3 1.8 0.6 0.3 0.4 0.7 0.7 1.1 1l1.5-0.1c2.6-0.2 4.9-1.7 6-4.1 0.9-2.4 0.9-5.1 0-7.6l-1.3-1.4c-0.7-0.1-1.3-0.3-1.8-0.8 -0.2-0.2-0.4-0.3-0.6-0.3 -0.2 0-0.4-0.2-0.6-0.3 -0.2-0.4-0.5-0.8-0.8-1.2l-0.8-0.9c-0.2-0.4-0.3-0.9-0.3-1.4 0-0.5 0-1.1 0-1.7 0-0.5 0-1.1-0.1-1.6 0-0.5-0.1-1.1-0.2-1.6 0.2-0.8 0.3-1.6 0.3-2.3 -0.1-0.4-0.2-0.8-0.1-1.1 0.1-0.5 0.1-1 0.2-1.5 0.2-1.1 0.3-2.3 0.3-3.4 0.2-0.4 0.3-0.8 0.4-1.3 0.1-0.6 0.4-1.1 0.7-1.6l0.1-2c0.2-1.3 0.3-2.8 0.5-4.7 0.2-1.8 0.7-3.6 1.5-5.2 0-1.7 0.2-3.5 0.6-5.2 0.4-1.7 0.8-3.3 1.4-4.9 0.1-2.3 0.3-4.4 0.6-6.2 0.3-1.9 0.6-3.8 0.9-5.6s0.7-3.7 1-5.6c0.3-1.8 0.6-4 0.9-6.4 1.3-0.4 2.7-0.8 4.2-1.3 1.5-0.5 3.2-1 4.9-1.5 2.3-0.8 4.7-1.6 7.1-2.4 2.3-0.7 4.6-1.3 6.9-1.7l1.5-0.2c0.4-0.1 1-0.1 1.9-0.2 0.3-0.2 0.5-0.3 0.7-0.4 0.2 3.4 0.4 6.9 0.9 10.4 0.5 4.3 0.9 8.3 0.9 11.9 -0.3 0-0.6 0-0.9 0.1 -0.2 0.1-0.4 0.3-0.4 0.7 0.5 1 0.8 2.1 1 3.2 0.2 1.4 0.4 2.8 0.4 4.2 0 1.4-0.1 2.8-0.3 4.2 -0.2 1.2-0.6 2.4-1.1 3.4 0.3 2.5 0.5 4.9 0.5 7.4 0 2.7-0.5 5.4-1.5 7.9 0.4 0.5 0.6 1.1 0.6 1.8 0 0.6 0 1.1-0.1 1.6 -0.1 0.6-0.2 1.2-0.2 1.8 0 0.8 0.1 1.6 0.4 2.4 -0.3-0.3-0.6-0.3-0.7-0.1 -0.2 0.3-0.3 0.7-0.3 1.1 0 0.5 0 0.9 0 1.4 0 0.4-0.1 0.8-0.2 1.2 0.8 1.3 1.6 2.6 2.2 4 0.6 1.3 1.4 2.5 2.4 3.5 -0.3-0.1-0.6-0.1-0.7 0.1 -0.2 0.2-0.2 0.5-0.2 0.7 0 0.3 0.1 0.5 0.2 0.8 0.1 0.2 0.3 0.3 0.5 0.2 0 0.3 0.3 0.5 0.7 0.7 0.4 0.2 0.9 0.4 1.4 0.7 0.6 0.3 1.1 0.6 1.6 1 0.5 0.4 0.8 0.9 0.9 1.5 1.4 0.7 3 1 4.5 0.9 1.1-0.1 2.2-0.5 3.2-1.2 1-0.7 1.8-1.4 2.7-2.3 0.9-0.9 1.9-1.6 3-2.2 0.1-0.4 0-0.9-0.2-1.2 -0.2-0.3-0.4-0.6-0.6-0.9 0.7 0 1.2-0.6 1.6-1.8 0.5-1.3 0.8-2.6 1.1-3.9 0.3-1.4 0.5-2.8 0.6-4.1 0.1-0.8 0.2-1.5 0.2-2.3 0.9-1 2.2-2.2 3.8-3.6 3.4-3.1 7-5.9 11-8.3 1.9-1.2 3.9-2.1 6-2.7 0 0.1 0 0.7 0 1.8 0 1.1 0 2.3 0 3.6 0 1.3 0.1 2.4 0.1 3.6 0 1.1 0.1 1.7 0.1 1.8 0.3 2.4 1.2 4.6 2.6 6.5 1.4 1.8 2.9 3.5 4.7 5l-0.3 1.3c0.9 0.1 1.7 0.4 2.4 0.9 0.7 0.5 1.5 0.9 2.3 1.3 1.4-0.9 2.8-1.8 4.2-2.8 1.4-1 2.6-2.2 3.6-3.7 1-1.5 1.7-3.3 2-5.1 0.4-2.3 0.3-4.7-0.3-6.9 -0.8-1.1-1.3-2.4-1.4-3.8 0-1.2-0.3-2.4-0.7-3.5 0.6-0.9 1-1.9 1.2-2.9 0.3-1.1 0.5-2.3 0.6-3.4 0.1-1.2 0.3-2.3 0.5-3.5 0.1-1.1 0.5-2.1 0.9-3.1 -0.3-4.1-0.4-8.1-0.2-12.2 0.2-3.9 0.3-7.8 0.3-11.9 -0.6-3.4-1.3-6.7-2-9.9 -0.7-3.2-1.4-6.3-2.1-9.3 -1.5-1.1-2.9-2.4-3.9-3.9 -1.1-1.6-2.2-3.4-3.3-5.2 -1.1-1.9-2.1-3.7-3.1-5.5 -1-1.7-2.1-3.4-3.4-5 -1.5 0.7-2.8 2-3.5 3.5 -0.9 1.7-1.4 3.6-1.6 5.5 -0.2 2.1-0.2 4.3 0.1 6.4 0.3 2.2 0.8 4.3 1.6 6.3 -0.6 0.3-1 0.8-1.1 1.4 -0.2 0.6-0.4 1.2-0.8 1.8 1.2 4.1 1.8 8.3 1.9 12.5 0 4.2 0.2 8.5 0.5 12.8 -1.7 1.5-3.6 2.8-5.5 3.9 -2 1.1-4 2.2-6.1 3.1 -2.1 0.9-4.2 1.9-6.4 2.8 -2.2 0.9-4.2 1.9-6.2 2.8 0.1-0.9 0-1.4-0.5-1.5 -0.4 0-0.8-0.3-0.9-0.7 0.1-1.8 0.1-4 0.1-6.6 0-2.6-0.1-5.3-0.1-8.1 -0.1-2.8-0.2-5.5-0.4-8.2 -0.2-2.7-0.4-5-0.7-7 -1.1-1.7-2.3-3.3-3.7-4.8 -1.3-1.4-2.5-2.8-3.8-4.2 -1.2-1.4-2.4-2.9-3.5-4.4 -1.2-1.7-2.2-3.5-3-5.5 -1.5 0.8-2.8 2.1-3.6 3.6 -0.3-0.2-0.6-0.5-0.9-0.7 -0.6-0.4-1.2-0.8-1.8-1.3 -0.5-0.5-1-1-1.4-1.5l-1.5-1c-1 0-2.1 0-3.2 0.1s-2.3 0.2-3.5 0.4c-2.9 0.5-5.7 1.2-8.5 2.1 -2.9 0.9-5.7 1.8-8.5 2.7 -2 0.7-4 1.4-5.9 2 -1.9 0.6-3.8 1.2-5.6 1.7 -0.5-0.5-1.1-1-1.8-1.4 -1.1-0.5-2.4-0.5-3.6-0.2l-1.1 1c-0.1 0.4-0.2 0.7-0.2 1 -0.1 0.3-0.2 0.9-0.4 1.9 -3.8 0.9-7.3 1.9-10.5 2.9 -3 0.8-5.9 1.6-8.7 2.4 -2.8 0.7-5.6 1.3-8.4 1.8l-1.8 0.3c-0.6 0.1-1.2 0.2-1.8 0.2l-1.6 0.3 0 2.4c-0.2 0.3-0.4 0.7-0.5 1.1 -0.2 0.6-0.3 1.3-0.2 2 0.2 1.5 0.6 2.9 1.2 4.3C41 753.9 41.5 755 42 756z"/><path d="M195.2 740c0.6 1.6 1.3 3.2 2.1 4.7 0.8 1.6 2 3 3.4 4.1 -0.2 1.9-0.5 3.9-1 5.8 -0.4 1.7-0.8 3.4-1.2 5.1 -0.4 1.7-0.7 3.4-1 5.2 -0.3 1.8-0.5 3.6-0.7 5.7 -0.6-0.1-0.9 0.1-0.9 0.6 0 0.4-0.3 0.8-0.7 1 0.3 0.7 0.4 1.4 0.3 2.1 -0.1 0.7-0.2 1.5-0.4 2.2 -0.2 0.7-0.4 1.4-0.6 2.2 -0.2 0.8-0.3 1.6-0.3 2.4 0.1 1.7 0.3 3.3 0.7 5 0.4 1.8 0.9 3.6 1.5 5.3 0.6 1.8 1.1 3.5 1.6 5.1 0.5 1.7 1 3.2 1.4 4.4 1 0.4 1.7 1.1 2.2 2.1 0.4 0.9 0.9 1.7 1.7 2.3 2 1.7 4.5 2.8 7.2 3.2 2.8 0.4 5.6 0.4 8.3 0 2.8-0.4 5.6-1 8.3-1.9 2.7-0.9 5-1.7 7-2.5 0.6-0.1 1.2-0.1 1.7 0.1 0.7 0.1 1.4 0 2-0.3 3.1-1.2 6-2.3 8.5-3.2 2.4-0.8 4.7-2 6.8-3.4 2-1.4 3.7-3.2 5-5.2 1.6-2.7 2.7-5.6 3.3-8.6 -0.4 0.2-0.9 0.2-1.2-0.1 -0.3-0.3-0.5-0.7-0.7-1.2 -0.2-0.5-0.4-1.1-0.6-1.7 -0.2-0.6-0.5-1.1-1-1.5 -0.7 0.3-1.4 0.2-2-0.2 -0.6-0.5-1.2-1.1-1.8-1.7 -0.6-0.7-1.2-1.3-1.8-2 -0.5-0.6-1.3-1-2.1-1.2 -2 1.2-4.1 2.1-6.2 2.8 -2.1 0.7-4.1 1.8-5.8 3.2 -2.3 0.3-4.5 0.7-6.7 1.4 -1.8 0.6-3.5 1.1-5.2 1.7 -1.8 0.6-3.6 1-5.4 1.4 -2.5 0.4-5 0.6-7.5 0.5 0.4-2.9 0.9-5.7 1.7-8.4 0.7-2.7 1.6-5.3 2.5-7.8 1.2 0.3 2.4 0.3 3.6 0.1 1.2-0.2 2.4-0.2 3.6 0.1 0.8-0.6 1.9-0.9 2.9-0.9 1 0 2-0.3 2.8-0.9 0.3 0.2 0.6 0.4 1 0.4l0.9-0.1c1.9-0.2 3.8-0.8 5.5-1.7 1.6-0.9 3.1-1.9 4.4-3.2 1.3-1.2 2.6-2.5 3.7-3.9 1.2-1.4 2.4-2.8 3.6-4.2 0.2-1 0.1-2.1-0.2-3.1 -0.3-0.9-0.7-1.8-1.2-2.6 -0.8 0.2-1.6 0.2-2.4-0.2 -0.8-0.4-1.5-0.9-2.2-1.5 -0.7-0.6-1.5-1.3-2.2-2 -0.6-0.6-1.4-1.2-2.2-1.7 -0.1-0.3-0.1-0.7 0.1-1 0.1-0.3 0.1-0.6 0-0.9 -3.5 0.7-7 1.6-10.7 2.6 -3.3 0.9-6.6 1.5-10 1.7 -0.4-0.8-0.6-1.6-0.7-2.5 -0.1-1-0.5-1.9-1-2.8 0.7-0.4 1.5-0.8 2.2-1.2 0.7-0.4 1.3-1 1.8-1.6 0.8 0.1 1.5-0.1 2.2-0.4 0.6-0.3 1.1-0.5 1.6-0.8 0.4-0.2 0.9-0.4 1.4-0.6 0.5-0.1 1.1-0.1 1.6 0.1 1.5-1.6 3.3-3 5.2-4.1 1.8-1 3.6-1.9 5.5-2.6 1.8-0.7 3.7-1.4 5.4-2 1.7-0.6 3.4-1.4 5-2.4 1.6-1 3-2.3 4.2-3.8 1.4-1.8 2.4-3.9 3-6.2 -0.2-0.5-0.4-1.1-0.5-1.6 -0.1-0.4-0.1-0.7-0.1-1.1 0-0.3 0-0.7 0-1 -0.1-0.6-0.2-1.1-0.3-1.7 -1.8-0.6-3.5-1.4-5.1-2.3 -1.6-1-3-2.4-4.1-4 0.1 0.4 0.2 0.7 0 0.9 -0.1 0.2-0.3 0.2-0.5 0.1 -0.2-0.1-0.4-0.1-0.7-0.2 -0.2 0-0.4-0.1-0.6 0 0 0.2 0.1 0.4 0.2 0.6 0.1 0.2 0.1 0.5 0.2 0.7 -0.6 0.1-1.1-0.2-1.3-0.7l-0.7 0.1c-0.2 0-0.3-0.1-0.4-0.3 -3.5 1.4-6.7 2.5-9.4 3.4s-5.4 1.7-7.9 2.6c-2.5 0.9-5.1 2-7.7 3.2 -2.6 1.2-5.5 2.7-8.8 4.6 -1.9 0.8-3.6 1.6-5.3 2.3 -1.6 0.6-3.1 1.4-4.5 2.4 -1.3 0.9-2.6 1.9-3.6 3.2 -1.1 1.3-1.9 2.8-2.5 4.4 0.7 1.6 1.3 3.3 1.7 5.1C194.2 736.7 194.7 738.4 195.2 740z"/><path d="M298.1 727.2c0.7 0.7 1.1 1.6 1.2 2.6 0.1 0.8 0.1 1.9 0.1 3.3 0.5 0.8 1.2 1.6 1.9 2.3 0.7 0.7 1.3 1.4 2 2.2 0.8-0.3 1.3-0.3 1.6 0.1 0.3 0.4 0.6 0.8 0.8 1.3 2.7 0.9 5.5 1.4 8.3 1.5 2.9 0.1 5.9 0 8.8-0.4 1.1 0.1 2.2 0.3 3.3 0.5 0.9 0.2 1.9-0.2 2.5-1 1.8 0.8 3.8 1.4 5.7 1.8 2.2 0.4 4.3 1.1 6.4 1.9 0.2 0 0.3 0 0.5 0.1 0.2 0.1 0.4 0.1 0.6 0.2 0 0.3 0.1 0.6 0.3 0.8 0.2 0.1 0.3 0.3 0.5 0.4 0.2 0.1 0.3 0.2 0.4 0.4 0.1 0.2 0.2 0.5 0.1 0.8 0 0.9-0.2 1.8-0.6 2.6 -0.3 0.7-0.7 1.4-1.1 2.1 -0.4 0.7-0.8 1.3-1.2 2 -0.4 0.7-0.6 1.6-0.7 2.4 -1.8 1.6-3.7 3.2-5.5 5 -1.9 1.8-3.9 3.5-6 5.1 -2.2 1.6-4.5 3-7 4.1 -2.6 1.2-5.4 1.8-8.3 1.9 -0.8 0.7-1.3 1.8-1.4 2.9 0 1.1 0.1 2.2 0.3 3.3 0.3 1.1 0.5 2.2 0.8 3.3 0.3 0.9 0.3 1.9 0.1 2.9 0 0.2 0.1 0.5 0.3 0.6 0.2 0.1 0.4 0.3 0.6 0.4 0.2 0.1 0.3 0.2 0.4 0.3 0.1 0.1 0 0.3-0.3 0.7 0 0.2-0.1 0.4-0.1 0.6 0 0.3 0 0.5 0 0.8 0.4-0.1 0.6 0.2 0.6 0.6 0 0.5 0.2 0.7 0.6 0.8 0.4 0.8 0.9 1.6 1.6 2.3 0.6 0.6 1.2 1.2 1.9 1.8 0.9-0.3 1.9-0.5 2.8-0.6 1-0.1 2-0.2 2.9-0.3 0.9-0.1 1.8-0.3 2.7-0.6 0.8-0.3 1.5-0.9 2-1.7 -0.1 0.6 0 0.9 0.4 0.7 0.3-0.1 0.7-0.2 1-0.2 3.1-1.7 6.1-3.7 8.9-5.8 3-2.3 5.7-4.8 8.2-7.6 2.5-2.8 4.7-6 6.5-9.4 1.8-3.5 3-7.3 3.5-11.3 0.4-2.1 0.3-4.2-0.1-6.3 -0.5-2.1-1-4.4-1.6-7 -0.9-1.6-1.9-3-3.2-4.3 -1.1-1.1-2.1-2.4-2.7-3.8 -0.5-0.5-1-0.7-1.2-0.5 -0.3 0.2-0.7-0.1-1.1-0.9 -0.1-1.1-0.4-2.2-0.9-3.2 -0.5-1.1-1.2-2.2-2-3.1 -0.8-0.9-1.8-1.7-2.8-2.3 -1.1-0.6-2.3-0.8-3.6-0.7 -0.3-0.9-0.9-1.6-1.8-2.1 -0.8-0.4-1.7-0.6-2.6-0.7 -0.9-0.1-1.9-0.2-2.8-0.4 -0.9-0.2-1.7-0.6-2.3-1.3 0.1-0.6 0-0.9-0.3-1 -0.3-0.2-0.4-0.5-0.4-0.9 1.4-0.4 2.7-0.9 4-1.4 1.2-0.4 2.1-1.2 2.8-2.3 1.1 0 2.2-0.3 3.2-0.9 1.1-0.6 2.2-1.2 3.3-1.8 1-0.6 2.1-1 3.3-1.2 1.1-0.2 2.3 0.2 3.1 1.1 2.5-0.8 5.4-1.6 8.6-2.4 3.2-0.8 6.6-1 9.9-0.5 0.8-0.8 1.6-1.6 2.4-2.4 0.7-0.8 1.5-1.7 2.1-2.5 0.1-1.5-0.2-3.1-1-4.4 -0.7-1-1.6-2-2.6-2.7 -0.2-0.9-0.6-1.8-1.2-2.6 -0.6-0.8-1.2-1.6-1.9-2.5 -0.7-0.8-1.4-1.7-2-2.6 -0.7-0.9-1.2-1.8-1.7-2.8 -4.6-0.9-9.4-0.8-13.9 0.2 -4.2 1-8.3 2.5-12.2 4.5 -3.9 2-7.6 4.1-11.3 6.4 -3.5 2.2-7.2 4.2-11.1 5.7 -0.1 0.5 0 0.7 0.3 0.6 0.3 0 0.5 0.1 0.5 0.5 -1.4 0.8-2.9 1.7-4.5 2.7 -1.6 1-3.1 2.2-4.5 3.6 -1.4 1.4-2.7 3-3.7 4.7 -1.1 1.9-1.8 4.1-2 6.3 0.3 1.1 0.5 2.2 0.5 3.3C298.3 724.7 298.2 725.8 298.1 727.2z"/><path d="M370.5 754.5c-0.3 0.2-0.7 0.5-1 0.7s-0.4 0.6-0.1 1.2c0.3 0.2 0.5 0.4 0.5 0.6 0 0.2 0 0.5 0 0.8 -0.2 0.2-0.2 0.5-0.2 0.7 0.1 0.2 0 0.5-0.3 0.6 0 0 0 0 0 0 -0.2 0.6-0.3 1.3-0.1 2 0.2 0.5 0.5 1.1 0.8 1.6 0.3 0.5 0.5 1 0.6 1.5 0.1 0.6 0 1.3-0.4 1.8 0.9 0.5 1.8 1 2.6 1.6 -0.4 0.8-0.5 1.8-0.2 2.7 0.3 0.9 0.8 1.8 1.3 2.6 0.5 0.9 1.1 1.8 1.7 2.8 0.6 1.1 1 2.2 1.2 3.4 0.7 0.1 1.3 0.3 1.9 0.6 0.6 0.4 1.2 0.7 1.7 1.1 0.6 0.4 1.2 0.7 1.8 0.9 0.7 0.2 1.4 0.3 2.1 0.1 2.4-1.9 4.4-4.3 5.6-7.1 1.4-3 2.6-6 3.6-9.1 1.1-3.2 2.2-6.4 3.5-9.5 1.2-3 2.9-5.8 5.1-8.2 0.4 0.2 0.8 0.3 1.2 0.2 0.4-0.1 0.8 0.1 1 0.5 1.4 1.6 2.9 3 4.5 4.2 1.6 1.2 3.4 2.5 5.1 3.7 1.4 0.9 2.9 1.8 4.6 2.8 1.1 0.7 2.3 1.3 3.6 1.8 0.6 0.2 1.3 0.2 1.9 0 0.7-0.2 1.4-0.1 2 0.2 0.3 0.3 0.5 0.5 0.6 0.8 0.2 0.4 0.5 0.6 0.7 0.7 3.1 1 6.4 1.4 9.7 1.4 3.7-0.1 7.4-0.6 11-1.4 2.1-1.6 4-3.6 5.4-5.9l0.9 0.8c0.5 0.7 0.9 1.4 1 2.3 0.2 0.6 0.4 1.1 0.6 1.7 0.2 0.6 0.5 1.3 0.9 1.8l0.8 0.9c0.8 0.3 1.5 0.7 2.1 1.2 0.6 0.5 1.5 1.2 2.5 2.1l1.4-0.1c0.5-0.1 0.9-0.2 1.3-0.3 0.4-0.2 1-0.4 1.9-0.9l1.6-0.5 0-1.8c0.4-0.5 0.8-1 1.3-1.3 0.5-0.4 1-0.8 1.4-1.2 0.5-0.5 0.9-1.1 1.1-1.8l0.1-1.8c-0.2-1.3-0.3-2.7-0.2-4 0.1-1.4 0.2-2.8 0.3-4.2 0.1-0.9 0.3-1.8 0.4-2.8 0.1-0.9 0.1-1.9 0.1-2.9 0.1-0.2 0.3-0.4 0.5-0.6 0.2-0.2 0.3-0.5 0.4-0.7l0.9-1.4 -0.7-1.4c-0.1-0.2-0.1-0.5-0.1-0.8 0-0.3 0.1-0.6 0.2-0.8l1.4-0.5 0.1-1.8c0-0.6 0.1-1.3 0.2-2 0.1-0.7 0.2-1.4 0.4-2.2 0.3 1 0.7 2 1.4 2.9 -0.1 1.2 0.2 2.3 0.9 3.2 0.7 0.8 1.2 1.4 1.7 1.9 0.2 0.2 0.4 0.3 0.6 0.5 0.2 0.1 0.3 0.3 0.4 0.5l0.6 1.4 1.2-0.1c1.3 0 2.6 0 4-0.2 1.7-0.3 3.5-0.8 5.1-1.4 1.5-0.6 3.1-1.4 4.6-2.2 1.1-0.5 2.2-1 3.3-1.5 1.4-0.5 3-0.7 4.5-0.5 0.6 1.9 0.7 4 0.1 6 -0.9 1.5-2.2 2.7-3.9 3.4l-3.4 1.8 2.7 2.7c0.3 0.3 0.7 0.6 0.9 0.9 0.3 0.3 0.6 0.5 0.9 0.7 0.7 0.5 1.4 1.1 1.9 1.8 0.4 0.5 0.5 1.2 0.4 1.8l-0.1 2 1.5 0.6c0.6 0.2 1.1 0.5 1.6 0.8 0.5 0.3 0.9 0.6 1.4 0.8 0.7 0.3 1.6 0.5 2.4 0.6 1.8-0.4 3.5-1.2 4.9-2.4 1.5-1.2 2.8-2.7 3.9-4.3 1.1-1.7 2-3.5 2.6-5.4 0.7-2.1 1.2-4.3 1.5-6.5 -0.1-2-0.4-3.9-0.9-5.9 -0.5-1.9-1-3.6-1.6-5.3 -0.2-0.6-0.4-1.2-0.6-1.8 -0.1-0.6-0.3-1.1-0.6-1.7 1.8-1.5 3.4-3.2 4.7-5.2 1.2-1.8 2.2-3.8 2.7-6l0.7-2.7 -2.1-0.6c-0.2-0.1-0.4-0.2-0.6-0.4 -0.2-0.2-0.5-0.4-0.6-0.5 -0.5-0.4-1-0.8-1.6-1.2 -0.8-0.4-1.8-0.6-2.7-0.4 -0.3-0.2-0.6-0.4-0.9-0.7 -0.2-0.2-0.5-0.4-0.7-0.7l-0.7-1.5 -1.4 0.4c-1 0.2-2 0.7-2.9 1.3 -0.4-0.1-0.9 0-1.3 0.1 -1.1-2-2-4.2-2.8-6.4 -0.8-2.3-1.6-4.6-2.4-7.1 -0.6-1.7-1.2-3.4-1.8-5.2 -0.6-1.7-1.3-3.5-1.9-5.2 -0.4-2.2-0.9-4.1-1.4-5.9 -0.5-1.8-1.1-3.5-1.7-5.3 -0.3-0.8-0.5-1.5-0.8-2.3 -0.2-0.8-0.5-1.6-0.8-2.6l-0.7-1.1c-1.1-0.9-2.4-1.5-3.7-1.8 -1.5-0.3-3.1-0.6-4.7-0.8 -0.9-0.2-1.8-0.4-2.6-0.5 -0.6-0.1-1.3-0.2-1.9-0.5l-1.9-1 -0.9 2.4c-1.1 3.4-2.5 6.7-4 9.9 -1.3 2.6-3.1 4.9-5.4 6.8l-2-0.1c-0.4 0.1-0.8 0.2-1.2 0.4 -0.3 0.2-0.6 0.4-0.8 0.6l-1.2 0.1 -0.5 1.4c-0.9 1.8-1.5 3.7-2 5.6 -0.5 1.9-0.9 3.7-1.2 5.6 -0.3 1.6-0.7 3.1-1.1 4.6 -0.5 1.7-1 3.5-1.6 5.1 -0.1 0.5-0.1 0.9 0 1.4 0.1 0.4 0.2 0.7 0.3 1.1 -0.4 1.9-0.7 3.7-1.1 5.5 -0.4 1.8-0.8 3.6-1.2 5.3 -1.2 5.5-2.4 10.9-3.5 16.1 -0.6 2.8-1.1 5.7-1.7 8.6 -0.5-0.4-1-0.7-1.4-1.1 -0.7-0.6-1.5-1.3-2.3-1.9 -0.8-0.6-1.6-1.1-2.4-1.6 -0.9-0.5-1.9-0.9-3-1.1 -0.4 0-0.6 0.2-0.5 0.6 0.1 0.3 0 0.7-0.3 0.8 0 0 0 0 0 0 -3.2 0.5-6.4 1-9.4 1.4 -2.9 0.4-5.8 0.4-8.6 0.1 -2.7-0.4-5.3-1.3-7.7-2.7 -2.7-1.7-4.9-4.1-6.4-6.9 0.1-0.7 0.4-1.4 0.8-1.9 0.5-0.5 0.8-1.2 1-1.9 0.2-0.1 0.5-0.2 0.7-0.3 0.2-0.1 0.5-0.2 0.7-0.2 0.2-0.9 0.6-1.7 1.1-2.5 0.5-0.7 1.1-1.4 1.6-2.1 0.6-0.7 1.2-1.4 1.7-2.1 0.5-0.7 1-1.5 1.3-2.4 1.5-2 3.2-4 5-5.8 1.7-1.7 3.3-3.4 4.9-5 1.6-1.6 3.2-3.3 4.7-5 1.6-1.9 3.1-3.8 4.4-5.9 0.1-1.1 0.2-2.2 0.5-3.3 0.3-0.9 0.5-1.7 0.6-2.5 -0.2-1.2-0.6-2.4-1.3-3.4 -0.5-0.7-1.2-1.2-1.9-1.7 -0.7-0.4-1.4-0.9-2.1-1.3 -0.8-0.6-1.5-1.4-2-2.3 -1.2 0.1-2.4-0.4-3.2-1.3 -0.9-1-1.8-1.9-2.7-2.7 -1 0.7-1.9 1.4-2.8 2.2 -0.9 0.8-1.9 1.5-3 2.1 0 0.7 0.2 1.1 0.5 1.2 0.3 0.1 0.5 0.4 0.5 1.1 -0.4-0.2-0.8-0.4-1.2-0.5 -0.6-0.1-1.2 0.1-1.6 0.5 -1.2 1.5-2.5 2.8-3.7 4 -1.2 1.2-2.4 2.5-3.5 3.8 -1.1 1.3-2.2 2.7-3.2 4.2 -1 1.5-2.3 3.1-3.7 4.7 -1.8 2.4-3.8 4.9-6.3 7.6 -2.3 2.6-4.4 5.5-6.1 8.6 -0.1-1.2-0.2-2.5-0.1-3.8 0-1.4 0.2-2.7 0.4-4.1 0.2-1.4 0.5-2.7 1-4 0.4-1.2 0.9-2.3 1.7-3.3 -0.3-0.2-0.5-0.5-0.6-0.8 0-0.2 0-0.5 0.1-0.7 0.1-0.3 0.1-0.5 0.1-0.8 0-0.4-0.1-0.8-0.2-1.2 1.1-0.9 1.8-2.3 1.9-3.8 0.1-1.5-0.1-3.1-0.6-4.5 -0.6-1.5-1.3-2.9-2.3-4.2 -0.9-1.2-1.9-2.3-3.1-3.2l-1.9 0.7c-0.4-0.4-0.8-0.9-1.1-1.4 -0.3-0.5-0.6-1-1-1.4 -0.6 0.1-1.3 0.1-1.9 0 -0.6-0.1-1.2-0.2-1.7-0.4 -0.6-0.2-1.1-0.3-1.7-0.5 -0.6-0.1-1.2-0.2-1.9-0.2 -1.3 1.2-2.2 2.6-2.8 4.2 -0.6 1.6-1 3.3-1.4 5 -0.3 1.7-0.7 3.4-1 5.1 -0.3 1.6-0.9 3.1-1.6 4.5 0 4.7-0.4 9.5-1 14.1 -0.6 4.4-1.3 8.7-1.9 13.1 -0.6 4.3-1.2 8.8-1.5 13.3C369.9 744.6 370 749.6 370.5 754.5zM481.4 716.4v0l0.1-0.1c0.7-2.9 1.7-5.7 2.8-8.4 1.2-2.9 2.5-5.7 3.9-8.5l0.3-1.4c1.4 3.3 2.7 6.6 3.9 9.8 1.3 3.3 2.4 6.5 3.6 9.6 -2.2 0.9-4.5 1.8-6.8 2.5 -2.1 0.6-4.4 1.2-6.9 1.8 -0.5 0.2-0.9 0.3-1.4 0.4 -0.5 0.1-1 0.2-1.4 0.4C480 720.3 480.7 718.3 481.4 716.4z"/><path d="M518 678.2c0.3 0.7 0.6 1.3 0.9 1.8 0.3 0.6 0.5 1.2 0.7 1.8l0.2 1.5 1.3 0.2c0.4 0 0.9 0.5 1.5 1.4l0.9 0.9c0.8 0.4 1.6 0.6 2.4 0.6 0.7 0 1.3 0 2-0.1l1.3-0.2 1.3-0.2 1-0.2c0.3 0 0.9-0.2 1.9-0.3 0.6-0.4 1.3-0.6 2-0.7l1.3-0.2 1.3-0.2c0.5-0.1 1-0.2 1.5-0.3 0.6-0.2 1.1-0.5 1.5-0.9 0.5 0 1 0 1.4-0.1 0.9-0.2 1.8-0.4 2.6-0.8 0.4-0.2 0.8-0.3 1.2-0.4 0.4-0.1 0.9-0.2 1.3-0.3 0 0.6-0.1 1.3-0.2 1.9 -0.1 0.7-0.3 1.5-0.5 2.2 -0.2 1.2-0.4 2.4-0.6 3.5 -0.2 1.1-0.2 2.3 0 3.4 -0.3 0.3-0.6 0.7-0.8 1.1l-0.9 1.6c-0.1 2.4-0.3 4.7-0.6 7 -0.3 2.3-0.6 4.6-1 6.8 -0.6 4.2-1.1 8.4-1.5 12.7 -0.3 5.3 0.1 10.5 1.2 15.7 0.5 0.6 0.9 1.3 1.2 2 0.3 0.8 0.7 1.6 1 2.5 0.4 1.2 0.9 2.3 1.4 3.4 0.5 1.1 1.1 2 1.9 2.9 0.1 0.4 0.1 1 0.2 1.9l1.3 0.6c0.6 0.3 1.2 0.5 1.9 0.6 0.2 0.1 0.4 0.2 0.6 0.2 0.2 0 0.4 0.1 0.6 0.2 0.4 0.5 0.8 0.8 1.4 1.1 0.5 0.1 1.1 0.3 1.8 0.6 0.3 0.4 0.7 0.7 1.1 1l1.5-0.1c2.6-0.2 4.9-1.7 6-4.1 0.9-2.4 0.9-5.1 0-7.6l-1.3-1.4c-0.7-0.1-1.3-0.3-1.8-0.8 -0.2-0.2-0.4-0.3-0.6-0.3 -0.2 0-0.4-0.2-0.6-0.3 -0.2-0.4-0.5-0.9-0.8-1.2l-0.8-0.9c-0.2-0.4-0.3-0.9-0.3-1.4 0-0.5 0-1.1 0-1.7 0-0.5 0-1.1 0-1.6 0-0.5-0.1-1.1-0.2-1.6 0.2-0.8 0.3-1.6 0.3-2.3 -0.1-0.4-0.2-0.8-0.1-1.1 0.1-0.5 0.1-1 0.2-1.5 0.2-1.1 0.3-2.3 0.3-3.4 0.2-0.4 0.3-0.8 0.4-1.3 0.1-0.6 0.4-1.1 0.7-1.6l0.1-2c0.2-1.3 0.3-2.8 0.5-4.7 0.2-1.8 0.7-3.6 1.5-5.2 0-1.7 0.2-3.5 0.6-5.2 0.4-1.7 0.8-3.3 1.4-4.9 0.1-2.3 0.3-4.3 0.6-6.2 0.3-1.9 0.6-3.8 0.9-5.6 0.4-1.9 0.7-3.7 1-5.6 0.3-1.8 0.6-4 0.9-6.4 1.3-0.4 2.7-0.8 4.2-1.3 1.5-0.5 3.2-1 4.8-1.5 2.3-0.8 4.7-1.6 7.1-2.4 2.3-0.7 4.6-1.3 6.9-1.7l1.5-0.2 0.1 0c0.3 0.8 0.5 1.6 0.7 2.4 0.4 1.7 0.9 3.3 1.5 5 0.6 1.6 1.3 3.2 2.1 4.7 0.8 1.6 2 3 3.4 4.1 -0.2 1.9-0.5 3.9-1 5.8 -0.4 1.7-0.8 3.4-1.2 5.1 -0.4 1.7-0.7 3.4-1 5.2 -0.3 1.8-0.5 3.6-0.7 5.7 -0.6-0.1-0.9 0.1-0.9 0.6 0 0.4-0.3 0.8-0.7 1 0.3 0.7 0.4 1.4 0.3 2.1 -0.1 0.7-0.2 1.5-0.4 2.2 -0.2 0.7-0.4 1.4-0.6 2.2 -0.2 0.8-0.3 1.6-0.3 2.4 0.1 1.7 0.3 3.3 0.7 5 0.4 1.8 0.9 3.6 1.4 5.3 0.6 1.8 1.1 3.5 1.6 5.1 0.5 1.7 1 3.2 1.4 4.4 1 0.4 1.7 1.1 2.2 2.1 0.4 0.9 0.9 1.7 1.7 2.3 2 1.7 4.5 2.8 7.2 3.2 2.8 0.4 5.6 0.4 8.3 0 2.8-0.4 5.6-1 8.3-1.9 2.7-0.9 5-1.7 7-2.5 0.6-0.1 1.2-0.1 1.7 0.1 0.7 0.1 1.4 0 2-0.3 3.1-1.2 6-2.3 8.5-3.2 2.4-0.8 4.7-2 6.8-3.4 2-1.4 3.7-3.2 5-5.2 1.6-2.7 2.7-5.6 3.3-8.6 -0.4 0.2-0.9 0.2-1.2-0.1 -0.3-0.3-0.5-0.7-0.7-1.2 -0.2-0.5-0.4-1.1-0.6-1.7 -0.2-0.6-0.5-1.1-1-1.5 -0.7 0.3-1.4 0.2-2-0.2 -0.6-0.5-1.2-1.1-1.8-1.7 -0.6-0.7-1.2-1.3-1.8-2 -0.6-0.6-1.3-1-2.1-1.2 -2 1.2-4.1 2.1-6.2 2.8 -2.1 0.7-4.1 1.8-5.8 3.2 -2.3 0.3-4.5 0.7-6.7 1.4 -1.8 0.6-3.5 1.1-5.2 1.7 -1.8 0.6-3.6 1-5.4 1.4 -2.5 0.4-5 0.6-7.5 0.5 0.4-2.8 0.9-5.7 1.7-8.4 0.7-2.7 1.6-5.3 2.5-7.8 1.2 0.3 2.4 0.3 3.6 0.1 1.2-0.2 2.4-0.2 3.6 0.1 0.8-0.6 1.9-0.9 2.9-0.9 1 0 2-0.3 2.8-0.9 0.3 0.2 0.6 0.4 1 0.4l0.9-0.1c1.9-0.2 3.8-0.8 5.5-1.7 1.6-0.9 3.1-1.9 4.4-3.2 1.3-1.2 2.6-2.5 3.7-3.9 1.2-1.4 2.4-2.8 3.6-4.2 0.2-1 0.1-2.1-0.2-3.1 -0.3-0.9-0.7-1.8-1.2-2.6 -0.8 0.2-1.6 0.2-2.4-0.2 -0.8-0.4-1.5-0.9-2.2-1.5 -0.7-0.6-1.5-1.3-2.2-2 -0.6-0.6-1.4-1.2-2.2-1.7 -0.1-0.3-0.1-0.7 0.1-1 0.1-0.3 0.1-0.6 0-0.9 -3.5 0.7-7 1.6-10.7 2.6 -3.3 0.9-6.6 1.5-10 1.7 -0.4-0.8-0.6-1.6-0.7-2.5 -0.1-1-0.5-1.9-1-2.8 0.7-0.4 1.5-0.8 2.2-1.2 0.7-0.4 1.3-1 1.8-1.6 0.8 0.1 1.5-0.1 2.2-0.4 0.6-0.3 1.1-0.5 1.6-0.8 0.4-0.2 0.9-0.4 1.4-0.6 0.5-0.1 1.1-0.1 1.6 0.1 1.5-1.6 3.3-3 5.2-4.1 1.8-1 3.6-1.9 5.5-2.6 1.8-0.7 3.6-1.4 5.4-2 1.7-0.6 3.4-1.4 5-2.4 1.6-1 3-2.3 4.2-3.8 1.4-1.8 2.4-3.9 3-6.2 -0.2-0.5-0.4-1.1-0.5-1.6 -0.1-0.4-0.1-0.7-0.1-1.1 0-0.3 0-0.7 0-1 -0.1-0.6-0.2-1.1-0.3-1.7 -1.8-0.6-3.5-1.4-5.1-2.3 -1.6-1-3-2.4-4.1-4 0.1 0.4 0.2 0.7 0 0.9 -0.1 0.1-0.3 0.2-0.5 0.1 -0.2-0.1-0.4-0.1-0.7-0.2 -0.2 0-0.4-0.1-0.6 0 0 0.2 0.1 0.4 0.2 0.6 0.1 0.2 0.1 0.5 0.2 0.7 -0.6 0.1-1.1-0.2-1.3-0.7l-0.7 0.1c-0.2 0-0.3-0.1-0.4-0.3 -3.5 1.4-6.7 2.5-9.4 3.4 -2.7 0.9-5.4 1.7-7.9 2.6 -2.5 0.9-5.1 2-7.7 3.2 -2.6 1.2-5.5 2.7-8.8 4.6 -1.9 0.8-3.6 1.6-5.3 2.3 -0.3 0.1-0.6 0.3-1 0.4 -0.3-0.7-0.7-1.4-1.2-2 -1.2-1.3-2.4-2.4-3.8-3.4 -0.6-0.4-1.2-0.8-1.8-1.3 -0.5-0.5-1-1-1.4-1.5l-1.5-1c-1 0-2.1 0-3.2 0.1s-2.3 0.2-3.5 0.4c-2.9 0.5-5.7 1.2-8.5 2.1 -2.9 0.9-5.7 1.8-8.5 2.7 -2 0.7-4 1.4-5.9 2 -1.9 0.6-3.8 1.2-5.6 1.7 -0.5-0.5-1.1-1-1.8-1.4 -1.1-0.5-2.4-0.5-3.6-0.2l-1.1 1c-0.1 0.4-0.2 0.7-0.2 1 -0.1 0.3-0.2 0.9-0.4 1.9 -3.8 0.9-7.3 1.9-10.5 2.9 -3 0.8-5.9 1.6-8.7 2.4 -2.8 0.7-5.6 1.3-8.4 1.8l-1.8 0.3c-0.6 0.1-1.2 0.2-1.8 0.2l-1.6 0.3 0 2.4c-0.2 0.3-0.4 0.7-0.5 1.1 -0.2 0.6-0.3 1.3-0.2 2 0.2 1.5 0.6 2.9 1.2 4.3C516.9 676.1 517.4 677.2 518 678.2z"/><path d="M656.3 668.7c0.7 0.7 1.1 1.6 1.2 2.6 0.1 0.8 0.1 1.9 0.1 3.3 0.5 0.8 1.2 1.6 1.9 2.3 0.7 0.7 1.3 1.4 2 2.2 0.8-0.3 1.3-0.3 1.6 0.1 0.3 0.4 0.6 0.8 0.8 1.3 2.7 0.9 5.5 1.4 8.3 1.5 2.9 0.1 5.8 0 8.8-0.4 1.1 0.1 2.2 0.3 3.3 0.5 0.9 0.2 1.9-0.2 2.5-1 1.8 0.8 3.8 1.4 5.7 1.8 2.2 0.4 4.3 1.1 6.4 1.9 0.2 0 0.3 0 0.5 0.1 0.2 0.1 0.4 0.1 0.6 0.2 0 0.3 0.1 0.5 0.3 0.8 0.2 0.1 0.3 0.3 0.5 0.4 0.2 0.1 0.3 0.2 0.4 0.4 0.1 0.2 0.2 0.5 0.1 0.8 0 0.9-0.2 1.8-0.6 2.6 -0.3 0.7-0.7 1.4-1.1 2.1 -0.4 0.7-0.8 1.3-1.2 2 -0.4 0.7-0.6 1.6-0.7 2.4 -1.8 1.6-3.7 3.2-5.5 5 -1.9 1.8-3.9 3.5-6 5.1 -2.2 1.6-4.5 3-7 4.1 -2.6 1.2-5.4 1.8-8.3 1.9 -0.8 0.7-1.3 1.8-1.4 2.9 0 1.1 0.1 2.2 0.3 3.3 0.3 1.1 0.5 2.2 0.8 3.3 0.3 0.9 0.3 1.9 0.1 2.9 0 0.2 0.1 0.5 0.3 0.6 0.2 0.1 0.4 0.3 0.6 0.4 0.2 0.1 0.3 0.2 0.4 0.3 0.1 0.1 0 0.3-0.3 0.7 0 0.2-0.1 0.4-0.1 0.6 0 0.3 0 0.5 0 0.8 0.4-0.1 0.6 0.2 0.6 0.6 0 0.5 0.2 0.7 0.6 0.8 0.4 0.8 0.9 1.6 1.6 2.3 0.6 0.6 1.2 1.2 1.9 1.8 0.9-0.3 1.9-0.5 2.8-0.6 1-0.1 2-0.2 2.9-0.3 0.9-0.1 1.8-0.3 2.7-0.6 0.8-0.3 1.5-0.9 2-1.7 -0.1 0.6 0 0.9 0.4 0.7 0.3-0.1 0.7-0.2 1-0.2 3.1-1.7 6.1-3.7 8.9-5.8 3-2.3 5.7-4.8 8.2-7.6 2.5-2.8 4.7-6 6.5-9.4 1.8-3.5 3-7.3 3.5-11.3 0.4-2.1 0.3-4.2-0.1-6.3 -0.5-2.1-1-4.4-1.6-7 -0.9-1.6-1.9-3-3.2-4.3 -1.1-1.1-2.1-2.4-2.7-3.8 -0.5-0.5-1-0.7-1.2-0.5 -0.3 0.2-0.7-0.1-1.1-0.9 -0.1-1.1-0.4-2.2-0.9-3.2 -0.5-1.1-1.2-2.2-2-3.1 -0.8-0.9-1.8-1.7-2.8-2.3 -1.1-0.6-2.3-0.8-3.6-0.7 -0.3-0.9-0.9-1.6-1.8-2.1 -0.8-0.4-1.7-0.6-2.6-0.7 -0.9-0.1-1.9-0.2-2.8-0.4 -0.9-0.2-1.7-0.6-2.3-1.3 0.1-0.6 0-0.9-0.3-1 -0.3-0.2-0.4-0.5-0.4-0.9 1.4-0.4 2.7-0.9 4-1.4 1.2-0.4 2.2-1.2 2.8-2.3 1.1 0 2.2-0.3 3.2-0.9 1.1-0.6 2.2-1.2 3.3-1.8 1-0.6 2.1-1 3.3-1.2 1.1-0.2 2.3 0.2 3.1 1.1 2.5-0.8 5.4-1.6 8.6-2.3 3.2-0.8 6.6-1 9.9-0.5 0.8-0.8 1.6-1.6 2.4-2.4 0.3-0.4 0.6-0.7 0.9-1 0.2 3.2 0.4 6.4 0.8 9.7 0.5 4.3 0.9 8.3 0.9 11.9 -0.3 0-0.6 0-0.9 0.1 -0.2 0.1-0.4 0.3-0.4 0.7 0.5 1 0.8 2.1 1 3.2 0.2 1.4 0.4 2.8 0.4 4.2 0 1.4-0.1 2.8-0.3 4.2 -0.2 1.2-0.6 2.4-1.1 3.4 0.3 2.5 0.5 4.9 0.5 7.4 0 2.7-0.5 5.4-1.5 7.9 0.4 0.5 0.6 1.1 0.6 1.8 0 0.6 0 1.1-0.1 1.6 -0.1 0.6-0.2 1.2-0.2 1.8 0 0.8 0.1 1.6 0.4 2.4 -0.3-0.3-0.6-0.3-0.7-0.1 -0.2 0.3-0.3 0.7-0.3 1.1 0 0.5 0 0.9 0 1.4 0 0.4-0.1 0.8-0.2 1.2 0.8 1.3 1.6 2.6 2.2 4 0.6 1.3 1.4 2.5 2.4 3.5 -0.3-0.1-0.5-0.1-0.7 0.1 -0.2 0.2-0.2 0.5-0.2 0.7 0 0.3 0.1 0.5 0.2 0.8 0.1 0.2 0.3 0.3 0.5 0.2 0 0.3 0.3 0.5 0.7 0.7l1.4 0.7c0.6 0.3 1.1 0.6 1.6 1 0.5 0.4 0.8 0.9 0.9 1.5 1.4 0.7 3 1 4.5 0.9 1.1-0.1 2.2-0.5 3.2-1.2 1-0.7 1.8-1.4 2.7-2.3 0.9-0.9 1.9-1.6 3-2.3 0.1-0.4 0-0.9-0.2-1.2 -0.2-0.3-0.4-0.6-0.6-0.9 0.7 0 1.2-0.6 1.6-1.8 0.5-1.3 0.8-2.6 1.1-3.9 0.3-1.4 0.5-2.8 0.6-4.1 0.1-0.8 0.2-1.5 0.2-2.3 0.9-1 2.2-2.2 3.8-3.7 3.4-3.1 7-5.9 11-8.3 1.9-1.2 3.9-2.1 6-2.7 0 0.1 0 0.7 0 1.8 0 1.1 0 2.3 0 3.6 0 1.3 0.1 2.4 0.1 3.6 0 1.1 0.1 1.7 0.1 1.8 0.3 2.4 1.2 4.6 2.6 6.5 1.4 1.8 2.9 3.5 4.7 5l-0.3 1.3c0.9 0.1 1.7 0.4 2.4 0.9 0.7 0.5 1.5 0.9 2.3 1.3 1.4-0.9 2.8-1.8 4.2-2.8 1.4-1 2.6-2.2 3.6-3.7 1-1.5 1.7-3.3 2-5.1 0.4-2.3 0.3-4.7-0.3-6.9 -0.8-1.1-1.3-2.4-1.4-3.8 0-1.2-0.3-2.4-0.7-3.5 0.6-0.9 1-1.9 1.2-2.9 0.3-1.1 0.5-2.3 0.6-3.4 0.1-1.1 0.3-2.3 0.5-3.5 0.1-1.1 0.5-2.1 0.9-3.1 -0.3-4.1-0.4-8.1-0.2-12.2 0.2-3.9 0.3-7.8 0.3-11.9 -0.6-3.4-1.3-6.7-2-9.9s-1.4-6.3-2.1-9.3c-1.5-1.1-2.9-2.4-3.9-3.9 -1.1-1.6-2.2-3.4-3.3-5.2 -1-1.9-2.1-3.7-3.2-5.5 -1-1.7-2.1-3.4-3.4-5 -1.5 0.7-2.8 2-3.5 3.5 -0.9 1.7-1.4 3.6-1.6 5.5 -0.4 4.3 0.2 8.6 1.7 12.7 -0.6 0.3-1 0.8-1.1 1.4 -0.2 0.6-0.4 1.2-0.8 1.8 1.2 4.1 1.8 8.3 1.9 12.5 0 4.2 0.2 8.5 0.5 12.8 -1.7 1.5-3.6 2.8-5.5 3.9 -2 1.1-4 2.2-6.1 3.1 -2.1 0.9-4.2 1.9-6.4 2.8 -2.2 0.9-4.2 1.9-6.2 2.8 0.1-0.9 0-1.4-0.5-1.5 -0.4 0-0.8-0.3-0.9-0.7 0.1-1.8 0.1-4 0.1-6.6 0-2.6-0.1-5.3-0.1-8.1 -0.1-2.8-0.2-5.5-0.4-8.2 -0.2-2.7-0.4-5-0.7-7 -1.1-1.7-2.3-3.3-3.7-4.8 -1.3-1.4-2.5-2.8-3.8-4.2 -1.2-1.4-2.4-2.9-3.5-4.4 -1.2-1.7-2.2-3.5-3-5.5 -2.6 1.4-4.4 3.9-4.9 6.8 -0.5 2.5-0.8 5.1-0.8 7.7 -0.7-0.9-1.4-1.7-2.3-2.3 -0.2-0.9-0.6-1.8-1.2-2.6 -0.6-0.8-1.2-1.6-1.9-2.5 -0.7-0.8-1.4-1.7-2-2.6 -0.7-0.9-1.2-1.8-1.7-2.8 -4.6-0.9-9.4-0.8-13.9 0.2 -4.2 1-8.3 2.5-12.2 4.5 -3.9 2-7.6 4.1-11.3 6.4 -3.5 2.2-7.2 4.2-11.1 5.7 -0.1 0.5 0 0.7 0.3 0.6s0.5 0.1 0.5 0.5c-1.4 0.8-2.9 1.7-4.5 2.7 -1.6 1-3.1 2.2-4.5 3.6 -1.4 1.4-2.7 3-3.7 4.7 -1.1 1.9-1.8 4.1-2 6.3 0.3 1.1 0.5 2.2 0.5 3.3C656.4 666.1 656.4 667.3 656.3 668.7z"/><path d="M810.1 699.6c1.8 2.2 4 4.2 6.4 5.7 2.3 1.5 4.9 2.5 7.7 2.9 2.9 0.4 5.9 0.1 8.7-0.9 2.9 0.4 5.9 0.1 8.8-0.8 2.5-0.9 4.9-2.1 7.2-3.6 1.3 0 2.5-0.3 3.6-0.8 1.3-0.5 2.6-1.2 3.9-1.9 1.3-0.7 2.5-1.6 3.7-2.4 1.1-0.8 2.1-1.6 3-2.6 1.2-0.6 2.3-1.1 3.4-1.6 1.1-0.5 2.1-1.2 3-2 1.2-1.7 2.6-3.3 4.1-4.7 1.5-1.4 2.8-3.1 3.6-5 0.9-1 1.6-2.2 2-3.5 0.5-1.5 0.8-3.1 1-4.7 0.2-1.7 0.2-3.4 0-5.1 -0.1-1.6-0.4-3.2-0.8-4.8 -0.3-1.1-0.8-2.2-1.3-3.3 -0.6-1.1-1.1-2.2-1.7-3.2 -0.6-1.1-1.1-2.2-1.6-3.3 -0.5-1.1-0.7-2.4-0.8-3.6 -2.8-3.9-5.4-7.9-7.8-12 -2.4-4.1-4.9-8.2-7.7-12.1 0.2-0.7 0.2-1.4 0-2 -0.2-0.6-0.5-0.9-0.9-0.9 -0.4 0-0.7-0.3-0.8-1 0.8-0.7 1.3-1.7 1.3-2.7 0.1-1.2 0.2-2.4 0.4-3.5 -0.2-0.5-0.5-1-0.7-1.5 -0.2-0.4-0.5-0.8-0.7-1.1 -0.3-0.3-0.5-0.7-0.7-1.1 -0.3-0.5-0.5-1.1-0.7-1.6 -0.4 0-0.6 0.1-0.7 0.2s-0.3 0.3-0.7 0.4c-0.2-0.8-0.7-1.5-1.3-2.1 -0.6-0.4-1.2-0.9-1.8-1.3 -0.6-0.4-1.1-0.9-1.7-1.4 -0.6-0.6-1-1.4-1.2-2.3 -1-1-2.3-1.5-3.7-1.5 -1.3 0.1-2.5-0.2-3.7-0.7 -0.8 0.9-1.5 1.8-2.1 2.8 -0.6 1.1-1 2.3-1.3 3.6 -0.7 0.3-1.4 0.5-2.2 0.6 -0.6 0.1-1.3 0.3-1.9 0.4 -0.7 1.8-1.4 3.3-1.9 4.5 -0.7 1.4-1.7 2.6-3 3.5l0.3 1.7c-0.6 0.3-1.2 0.8-1.7 1.4 -0.4 0.5-0.8 1.1-1.2 1.7 -0.4 0.6-0.8 1.2-1.3 1.7 -0.5 0.5-1.1 1-1.7 1.2 -0.2 0.8-0.5 1.5-0.9 2.2 -0.4 0.6-0.8 1.2-1.3 1.8 -0.5 0.6-0.9 1.1-1.3 1.8 -0.4 0.7-0.7 1.4-0.8 2.2 -0.4 0.3-0.8 0.6-1 1.1 -0.2 0.5-0.5 1-0.6 1.5 -0.2 0.4-0.4 0.8-0.7 1.2 -0.3 0.3-0.8 0.4-1.2 0.2 -1.7 3.7-3.6 7.6-5.4 11.6 -1.9 4.1-3.5 8.3-4.7 12.7 -1.3 4.6-2 9.4-2.2 14.2 -0.1 5.5 0.6 11 2.2 16.3C806.5 694.8 808.2 697.3 810.1 699.6zM821.1 676.3h0c0.4-1.9 0.9-3.9 1.5-5.7 0.7-1.8 1.3-3.6 2-5.4 0.7-1.9 1.3-3.9 1.6-5.9 0.4-0.2 0.6-0.3 0.7-0.3 0.1 0.1 0.3 0 0.6-0.4 1.4-3.3 3.2-6.3 5.4-9.1 2.1-2.7 4.2-5.5 6.3-8.3 0.5 0.4 1 0.6 1.6 0.8 0.5 0.2 1.1 0.2 1.7 0.1 0.5-0.1 1-0.3 1.4-0.7 0.4-0.5 0.7-1.2 0.7-1.9 0.6 0.5 1.1 0.5 1.5 0 0.3-0.4 0.5-0.9 0.6-1.5 2.4 3.1 4.6 6.4 6.5 9.8 1.9 3.4 4.1 6.6 6.6 9.5 0.1 0.8 0.3 1.6 0.6 2.3 0.3 0.7 0.6 1.3 1 1.9 0.2 1.2 0.1 2.5-0.4 3.6 -0.5 0.9-0.8 1.9-0.9 3 -2.5 2.2-4.9 4.4-7.2 6.5 -2.2 2.1-5 3.6-7.9 4.5 -0.6 0.1-0.8 0.5-0.7 1.3 -1.9 0.3-3.7 0.9-5.5 1.6 -2 0.8-4 1.4-6.1 2 -2 0.5-4.1 0.8-6.1 0.9 -2 0-4-0.6-5.6-1.9C820.7 680.9 820.7 678.6 821.1 676.3z"/><path d="M886.6 659.4c-0.2 0.1-0.4 0.2-0.7 0.2 -0.3 0-0.4 0.2-0.4 0.5 1.6 0.5 2.8 1.8 3.2 3.5 0.5 1.9 0.8 3.9 0.8 5.9 0 2.2 0 4.4-0.1 6.7 -0.1 1.9 0 3.9 0.5 5.7 -0.4 0.1-0.9-0.1-1.2-0.4 0.1 1.1 0.6 2 1.3 2.8 -0.8 0.8-1.1 2-0.7 3.2 0.4 1.1 1 2.2 1.7 3.1 0.8 1 1.6 2 2.4 3.1 0.8 0.9 1.2 2 1.1 3.2 0.7-0.1 1.5 0.1 2.1 0.4 0.6 0.3 1.2 0.6 1.9 1 1.1-0.6 2.5-1.3 3.9-2 1.4-0.7 2.9-1.1 4.4-1.3 0.9-2.4 1.6-5 1.9-7.6 0.3-2.7 0.5-5.4 0.4-8.1 -0.1-2.7-0.3-5.4-0.6-8.1 -0.4-2.7-0.8-5.2-1.3-7.6 4-1.8 8.1-3.6 12.4-5.3 4.2-1.7 8.3-3.6 12.2-5.8 3.8-2.2 7.4-4.7 10.6-7.7 3.3-3 5.9-6.7 7.6-10.8 0.6-3.6 0.6-7.2 0.1-10.8 -0.5-3.4-1.4-6.8-2.6-10 -1.2-3.1-2.7-6.1-4.4-9 -1.7-2.8-3.5-5.4-5.3-7.8 -2.4-1.9-5.2-3.2-8.2-3.9 -3.3-0.8-6.7-1.1-10.1-1.1 -0.3 0-0.4 0.3-0.4 0.7 0 0.4-0.2 0.6-0.6 0.4 -1.8-0.3-3.6-0.2-5.3 0.1 -1.8 0.3-3.6 0.9-5.3 1.7 -1.7 0.8-3.2 1.7-4.6 2.9 -1.3 1-2.4 2.2-3.3 3.5 -1.4 1.1-2.5 2.5-3.4 4 -1 1.8-1.9 3.7-2.6 5.6 -0.8 2.2-1.4 4.4-1.8 6.7 -0.5 2.4-0.8 4.7-1.1 7.1 0.2 1.3 0.2 2.7 0 4 -0.3 1.3-0.9 2.6-1.8 3.6 -0.3 0.5-0.5 0.6-0.7 0.3 -0.2-0.3-0.6-0.3-1.2 0 -0.5 1.6-1.1 3.2-1.7 4.8 -0.6 1.6-1.1 3.1-1.4 4.8 -0.4 1.6-0.6 3.3-0.6 5 0 1.8 0.3 3.7 0.8 5.4 -0.5 0-0.8 0.2-0.8 0.7s-0.1 0.9-0.2 1.4c0.8 0.8 1.3 1.7 1.6 2.8C885.3 657.8 885.9 658.7 886.6 659.4zM907.5 631.6c0.1-0.7 0.3-1.3 0.4-2s0.2-1.4 0.2-2.1c0-0.8 0.1-1.7 0.3-2.7 1.3-2.1 3.2-3.8 5.5-4.8 2.2-1 4.5-1.6 6.9-1.7 2.3-0.2 4.6 0 6.8 0.6 1.8 0.4 3.5 1.2 5 2.3 -0.6 1.1-1.4 2-2.4 2.8 -1 0.7-2 1.4-3.1 2.1 -1.1 0.6-2.2 1.2-3.3 1.8 -1.1 0.6-2.2 1.3-3.2 2.1 -0.9 0.7-1.9 1.3-2.9 1.8 -1 0.4-1.9 0.8-2.9 1.2 -1 0.3-2 0.7-2.9 1.2 -1 0.5-1.9 1.1-2.8 1.9 -0.2-0.5-0.6-0.8-1.1-1 -0.5-0.2-0.9-0.6-1.1-1 0.2-0.9 0.3-1.6 0.5-2.3L907.5 631.6z"/><polygon points="588.6 117.7 588.6 117.7 588.6 117.7 "/><path d="M995.7 528.4c-2.7-2.3-6.3-3.2-9.8-2.6l-83.6 14.3c-0.1-15.7-0.7-32.4-0.7-50.4 0-68.5-1.5-311.7-1.8-363.7 0-6.1-3.4-11.7-8.8-14.6C720.1 19.5 538.4 2.1 513 0c0 0-1.1-0.1-3.1 0 -25.2 2-205.3 19.3-375.5 110.1 -6.9 3.7-11.3 10.9-11.3 18.7 -0.3 57.4-1.8 293.5-1.8 360.9 0 53-4.5 94.9 9.6 132.6L7.5 693.3c-4.5 1.8-7.5 6.1-7.5 11v178.2c0 3.5 1.6 6.9 4.3 9.1 2.7 2.3 6.3 3.2 9.8 2.6l325.1-55.5c52.7 39.9 109.5 74 169.4 101.8 3.7 1.7 8.1 1.7 11.8 0 52.1-24.2 101.8-53.4 148.3-87.2l323.2-126.1c1.2-0.5 2.4-1.2 3.4-2.1 0.2-0.1 0.3-0.3 0.5-0.4 0.1-0.1 0.2-0.2 0.2-0.2 2.5-2.2 3.9-5.4 3.9-8.7V537.5C1000 534 998.4 530.6 995.7 528.4zM151 515.6c0.2-8.9 0.3-18.1 0.3-27.8 0-59.6 1.2-263.7 1.6-324.8 0.1-10.3 5.8-19.8 14.9-24.7 142.2-75.8 293.5-95.4 333.2-99.3v0c7.5-0.4 15-0.4 22.5 0.2 42.1 4.3 192.8 24.5 334 100.4 7.7 4.1 12.6 12.1 12.6 20.9 0.4 61.8 1.6 268.1 1.6 327.4 0 9.7 0.2 18.9 0.3 27.8 0.2 10.3 0.3 20.1 0.2 29.6l-18.1 3.1c0.2-10.2 0-20.9-0.2-32.4 -0.2-9-0.3-18.3-0.3-28.1 0-59.2-1.2-265.5-1.6-327.3 0-2.2-1.2-4.3-3.2-5.3 -153.4-82.5-318.3-97.7-336.7-99.2l-0.8-0.1 -0.6 0.1c-18.1 1.5-181.6 16.6-334.4 98 -3.3 1.8-5.4 5.3-5.4 9.1 -0.4 61.1-1.6 265.2-1.6 324.7 0 9.8-0.2 19.1-0.3 28.1 -1 53.4-1.7 92 35.6 128.8 3.8 3.7 7.8 7.9 12.1 12.5l-21.4 3.7c-1.2-1.2-2.3-2.4-3.5-3.5C149.1 615.2 149.9 571.2 151 515.6zM764.1 163.1c-0.4 0.1-0.9 0.2-1.4 0.3 -0.4 0-0.9 0-1.3 0 -0.4 0-0.7-0.1-1-0.2 -0.9-0.3-1.7-0.8-2.5-1.4 -0.7-0.5-1.2-1.2-1.6-2 -0.4-0.8-0.6-1.7-0.6-2.6 0-1.1 0.2-2.2 0.7-3.2 0.4-1.1 1-2.1 1.8-2.9 0.7-0.7 1.6-1.3 2.6-1.7 1-0.4 2-0.6 3-0.5 1.1 0 2.1 0.2 3.2 0.6 1.1 0.4 2.1 1 2.9 1.8 0.9 0.8 1.6 1.8 2 3 0.5 1.3 0.7 2.7 0.7 4.1 -0.1 1.8-0.5 3.6-1.2 5.3 -0.6 1.8-1.6 3.4-2.8 4.9 -1 1.2-2.1 2.1-3.4 2.9 -1.2 0.6-2.4 1-3.8 1.1 -1.3 0.1-2.5-0.1-3.7-0.6 -1.4-0.5-2.7-1.3-3.8-2.4 -0.9-0.9-1.6-1.9-2.1-3l4.5-2.3c0.2 0.6 0.6 1.1 1.1 1.6 0.5 0.5 1 0.9 1.7 1.2 0.5 0.2 1.1 0.3 1.7 0.3 0.6 0 1.1-0.2 1.6-0.5 0.6-0.4 1.2-0.9 1.6-1.5 0.6-0.8 1.1-1.7 1.5-2.6 -0.4 0.2-0.8 0.4-1.3 0.6L764.1 163.1zM748.4 157.3l0 0c0.4 1.3 0.3 2.7-0.2 3.9 -0.3 0.9-0.8 1.6-1.5 2.2 -0.7 0.6-1.5 1.1-2.4 1.4 -1 0.3-2 0.4-3.1 0.4 -1.2-0.1-2.4-0.3-3.5-0.7 -1.1-0.4-2.1-0.9-3-1.6 -0.8-0.6-1.5-1.3-2.1-2.1 -0.5-0.8-0.8-1.6-1-2.5 -0.1-0.9 0-1.8 0.3-2.7 0.4-1.2 1.2-2.2 2.2-2.8 1-0.6 2.2-1 3.4-1.1l0.1-0.1c-0.6-0.9-1.1-1.9-1.3-3 -0.2-1.1-0.1-2.2 0.3-3.3 0.3-0.9 0.8-1.7 1.5-2.4 0.6-0.6 1.4-1.1 2.3-1.4 0.9-0.3 1.9-0.4 2.8-0.4 1.1 0.1 2.1 0.3 3.2 0.7 1 0.3 1.9 0.8 2.7 1.5 0.7 0.5 1.3 1.2 1.7 2 0.4 0.7 0.7 1.6 0.7 2.4 0.1 0.9-0.1 1.9-0.4 2.7 -0.3 1-1 1.8-1.8 2.4 -0.8 0.6-1.8 1-2.7 1.2l-0.1 0.1C747.4 155 748 156.1 748.4 157.3zM411.8 453l0 0c1.1 17.1 15.8 23.1 16.8 38.6 0.9 14 4.9 15.1 4.6 17.6 1 1.7 2 3.4 3.3 5 2.5 2.6 1.4 11 1 15.2 -0.5 6.6-0.5 13.3 0 20 0.7 5.4-1.1 8.1-15.5 12.6 -14.4 4.5-20.7-6.4-21.2-11.8s-2.4-18.5-2.6-26.5c-0.1-2.2-0.1-4.7 0-7.1 -5.9 0.2-11.7-0.8-17.1-3.1 0 0-5.9-5.8-4-13 1.9-7.1 4.7-23.7 0.8-34.3s-2.6-21.6-5.8-30.8c-3.2-9.1-2-27.1-6.3-31.5 -0.7-0.7-0.4-1.8 0.5-3.2 -2.2-1.7-1.5-4.7-2.9-6.7 -1.8-2.8-0.6-9.5-0.6-9.5s1.7-12.8 2.1-17c1.9-8.8 2.3-17.9 1.5-26.8 -1-12.2-0.2-24.4 2.4-36.3 1.3-4.7-0.3-8.9-1.3-9.5 -1-0.6-8.4 6-14.9 6.4 -3.3 1.4-6.9-1.3-9.8-4.4 -21.1 3.5-32.8 9.1-55.9 15.2 -25.2 6.7-37.4 19.1-44.4 24.2 -7 5-6.8 18.8-20.1 21.6 -13.3 2.8-15.9-0.2-17-2.3s3.5-2.4 2.7-6.7 -2.9-3.2-3.3-5.3 -0.5-10.6-0.7-14.2c-0.2-3.6 9.9-5.5 9.9-5.5 13.9 0.1 25.8-12.1 37.1-19.3 11.3-7.3 45.3-25.4 57-29.1 7.5-2.1 15.2-3.6 23-4.6 0.2-1.8 1-3.6 2.1-5 6.6-8.2 26.3-15.6 33.3-18.3 7-2.7 11.8-8.8 19.4-16.7 7.6-7.9 16.4-8.2 24.5-9.7 8.1-1.5 6.2-0.4 10.2-8.7 4-8.3 13.3-6.7 17-9.5s3.8-20.5 17.6-25c13.7-4.4 28.8 1.7 38.9 15.8 10.1 14.1 9.7 37.7 8.3 46.1 8.8 0.4 17.1 6.3 23.4 4.3 8.6-2.8 7-2.4 15.6 3.5 1.7 1.1 3 2.7 3.9 4.6 10.7-0.7 31.1-1.8 38.5-0.9 10.2 1.3 56.3 8.5 58.7 10 2.4 1.5 6.3 2.8 12-0.8s31.2-11.7 34.2-10.6c3 1.1 2.6 5 0.3 4.8 -4 0.2-7.8 1.5-11.2 3.6 0 0-0.4 1.2 4.3 1.6 4.7 0.4 8.2 2.4 8 3.3 -0.3 2.7-2.4 4.8-5.1 5.1 -4.1 0.4-9-2.8-12.4-0.2s-0.9 3.9 3.9 5.1c4.8 1.2 7.3 2.2 8.8 4.9 1.5 2.7 0.5 4.2-2.9 3.6 -3.4-0.6-12.1-5.1-15.6-3.5 -3.5 1.6-5.6 6.1-10.4 6.9s-16.9-2.8-35.3-4.7c-16.3-1.7-63.3-4.7-80.8-4.5 -1.2 1.2-2.8 1.9-4.4 2.1 -8.4 1.2-17 0.6-25.2-1.6 -5.3-1.9-11.2-2.2-13.8 3.2 -2.6 5.3-4.3 3.8-9.5 4.2 -5.2 0.3-6.7 2.4-6.7 2.4 -0.3 5.5-4 8.6-7.7 12.1s-5 6.8-4.1 15.4 -2.8 11.1-6.8 14.6c-2.6 1.8-3.2 5.3-1.5 7.9 0.4 0.6 0.9 1.1 1.5 1.5 0.7 0.4 1.4 0.9 1.9 1.6 10.5-8.7 28.1-23.1 40.6-31.6 18.9-12.9 43-17.6 55.2-0.5s15.8 23.9 15.4 30.1c8.2 9.9 31 26 31.1 28.3 0.2 2.3 4.2 5.9 5.1 18 11.6-2.2 27.5-9.3 31.7-14.3 4.8-5.8 13.4-4.1 17.4 2.1 4 6.2 0.3 19-5.1 25.8 -5.4 6.8-17.9 25.3-20.1 31.3 -1.9 5.6-4.2 11-7.1 16.2 -3.5 6.3-7.1 11.4-18.7 3.8 -11.6-7.6-14.3-13.5-15.1-15.4 -0.5-2.9-0.8-5.8-0.8-8.7 -12.1-3.3-18.6-22-25.8-28.9 -7.6-7.3-20.2-29.8-20.4-32.9 -0.2-3.1-12.9-15.5-26 0.1 -13.2 15.7-43.8 41.8-49.8 46.1 -6 4.3-4.2 7.3-19.4 16.1 -15.2 8.8-16.5 13.5-25.9 14.2l-9.4 0.6C417.3 439.4 410.7 435.9 411.8 453zM312.3 159.4l-7.8 2.8 -10.8-29.1 10.8-3.9c1.5-0.6 3.1-1 4.8-1.2 1.5-0.2 3-0.1 4.4 0.2 1.4 0.4 2.7 1.1 3.7 2.1 1.2 1.2 2.1 2.6 2.7 4.2 0.6 1.6 0.9 3.3 0.7 5 -0.2 1.5-0.6 2.9-1.4 4.1 -0.8 1.3-1.9 2.3-3.1 3.2 -1.3 0.9-2.7 1.7-4.2 2.2l-3.2 1.2L312.3 159.4zM343 148.9l-8.1 2.6 -0.5-32.4 9.6-3 18.7 26.6 -8.4 2.6 -3.5-5.8 -8.4 2.6L343 148.9zM399.8 132.6l-9 2.4 -7.9-8.7 -3.1 0.8 2.7 10 -8 2.1 -8.1-29.9 11.5-3c1.6-0.4 3.2-0.7 4.8-0.8 1.5-0.1 2.9 0.1 4.3 0.5 1.3 0.5 2.5 1.2 3.4 2.3 1.1 1.3 1.9 2.8 2.2 4.4 0.6 1.8 0.6 3.8 0.1 5.7 -0.5 1.6-1.4 3.1-2.7 4.3L399.8 132.6zM406.3 99.5l8.1-1.7 6.7 30.3 -8.1 1.7L406.3 99.5zM440.8 101.5c0.2 0.7 0.7 1.3 1.5 1.5l0 0c0.9 0.3 2.1 0.5 3.6 0.8l4 0.8c1.9 0.3 3.6 1.2 5 2.4 1.4 1.3 2.2 3.1 2.5 5 0.2 1.3 0.2 2.6-0.2 3.8 -0.3 1.3-1 2.5-1.8 3.5 -1 1.1-2.1 2.1-3.4 2.8 -1.6 0.8-3.3 1.4-5 1.6 -2.1 0.3-4.2 0.3-6.2-0.1 -2.2-0.4-4.3-1.2-6.2-2.4l3.7-6.3c1.2 0.7 2.6 1.2 4 1.5 1.2 0.3 2.5 0.4 3.8 0.2 0.9-0.1 1.8-0.4 2.6-1 0.5-0.4 0.7-1.1 0.6-1.7 0-0.3-0.2-0.7-0.4-0.9 -0.3-0.2-0.6-0.4-1-0.6 -0.5-0.2-0.9-0.3-1.4-0.4 -0.5-0.1-1.2-0.2-1.9-0.4l-4.1-1c-0.9-0.2-1.8-0.5-2.6-0.9 -0.8-0.4-1.6-0.9-2.3-1.5 -0.7-0.6-1.3-1.4-1.8-2.2 -0.5-0.9-0.8-1.9-1-2.9 -0.2-1.3-0.1-2.6 0.2-3.8 0.4-1.2 1-2.4 1.9-3.4 0.9-1.1 2-2 3.3-2.6 1.4-0.8 2.9-1.3 4.5-1.5 1.9-0.3 3.7-0.3 5.6 0.1 1.9 0.4 3.8 1.1 5.4 2.3l-3.2 5.8c-1.1-0.5-2.2-0.9-3.3-1.1 -1.1-0.2-2.2-0.2-3.3 0 -0.8 0.1-1.6 0.4-2.3 0.9C440.9 100.2 440.7 100.9 440.8 101.5zM502.1 102.9l9.6-10 10.2 9.5 -9.6 10L502.1 102.9zM558 109.1v0c0.2-1.4 0.6-2.7 1.2-3.9 0.5-1.1 1.2-2 2.1-2.8 0.8-0.7 1.7-1.2 2.7-1.6 0.9-0.3 1.9-0.4 2.9-0.3 0.9 0.1 1.7 0.4 2.4 0.8 0.6 0.4 1.2 1 1.6 1.6l0.1-2.7 0.8-5.9 6.4 0.8 -3.3 25.5 -5.2-0.6 -0.2-1.7 -0.1 0c-0.7 0.6-1.5 1-2.4 1.3 -0.8 0.3-1.7 0.4-2.5 0.3 -1.1-0.1-2.1-0.5-3.1-1.1 -0.9-0.6-1.6-1.3-2.1-2.2 -0.6-1-1-2.1-1.1-3.2C557.8 111.8 557.8 110.5 558 109.1zM591.1 118.8c0.6 0.1 1.3 0.1 1.9 0 0.7-0.1 1.4-0.3 2-0.5l1.4 4.1c-1.1 0.5-2.4 0.9-3.6 1 -1.2 0.1-2.3 0.1-3.5 0 -1.3-0.2-2.5-0.6-3.6-1.3 -1-0.6-2-1.4-2.7-2.4 -0.7-1-1.2-2.1-1.5-3.3 -0.3-1.4-0.3-2.8 0-4.2 0.2-1.4 0.7-2.7 1.5-3.9 0.7-1 1.5-1.9 2.5-2.7 1.9-1.4 4.3-1.9 6.6-1.5 1.2 0.2 2.4 0.6 3.4 1.3 0.9 0.6 1.6 1.4 2.2 2.3 0.5 0.9 0.9 2 1 3.1 0.1 1.2 0.1 2.3-0.1 3.5 -0.1 0.5-0.2 1-0.4 1.5 -0.1 0.5-0.3 0.8-0.3 1l-10.5-1.8c0 1 0.4 1.9 1.1 2.5C589.3 118.3 590.2 118.6 591.1 118.8zM600.9 131.6l5.2-24.4 5.1 1.1 0.1 1.8 0.1 0c0.8-0.5 1.7-0.8 2.6-1 0.9-0.2 1.9-0.2 2.8 0 1 0.2 2 0.6 2.8 1.3 0.8 0.6 1.4 1.4 1.9 2.3 0.5 1 0.7 2.1 0.8 3.2 0.1 1.3 0 2.6-0.3 3.9 -0.3 1.4-0.8 2.8-1.5 4 -0.6 1-1.4 1.9-2.4 2.7 -0.8 0.7-1.8 1.1-2.8 1.4 -1 0.2-2 0.3-3 0.1 -1.6-0.3-2.9-1.3-3.7-2.7l-0.4 2.8 -1.1 5L600.9 131.6zM633.3 126.4l0 0c0.2 0.5 0.7 0.8 1.2 0.9 0.5 0.1 1 0.1 1.5 0 0.5-0.2 1.1-0.5 1.5-0.9l2.9-11.5 6.2 1.5 -4.5 17.9 -5.1-1.2 0.2-2.5 -0.1 0c-0.9 0.7-1.9 1.1-2.9 1.5 -1.1 0.3-2.3 0.3-3.4 0 -0.9-0.2-1.7-0.6-2.4-1.1 -0.6-0.5-1.1-1.2-1.4-1.9 -0.3-0.8-0.5-1.7-0.4-2.5 0-1 0.2-2.1 0.4-3.1l2.8-11 6.2 1.5 -2.6 10.3C633.2 124.7 633.2 125.6 633.3 126.4zM669.7 135.6l0 0c-0.2-0.3-0.4-0.5-0.6-0.7 -0.3-0.3-0.6-0.5-1-0.8 -0.4-0.3-0.8-0.5-1.1-0.9 -0.5-0.4-0.9-0.8-1.4-1.2 -0.4-0.4-0.8-0.9-1.1-1.5 -0.3-0.6-0.5-1.2-0.6-1.8 -0.1-0.7-0.1-1.4 0.2-2.1 0.2-0.8 0.6-1.6 1.2-2.2 0.6-0.6 1.2-1.1 2-1.4 0.8-0.3 1.7-0.5 2.6-0.5 1 0 2 0.1 3 0.4 1.3 0.3 2.6 1 3.6 1.8 0.9 0.7 1.6 1.5 2.3 2.4l-3.8 2.8c-0.5-0.6-1-1.2-1.6-1.6 -0.5-0.4-1-0.7-1.6-0.9 -1.1-0.3-1.7-0.1-1.9 0.5 -0.1 0.2 0 0.5 0.1 0.7 0.2 0.3 0.4 0.5 0.6 0.7 0.3 0.3 0.6 0.5 1 0.7 0.4 0.2 0.8 0.5 1.2 0.8 0.5 0.4 1 0.7 1.4 1.2 0.5 0.4 0.9 0.9 1.2 1.5 0.3 0.6 0.5 1.2 0.6 1.8 0.1 0.7 0 1.5-0.2 2.2 -0.2 0.8-0.6 1.6-1.2 2.2 -0.6 0.6-1.2 1.1-2 1.5 -0.9 0.4-1.8 0.6-2.8 0.6 -1.2 0-2.3-0.2-3.4-0.5 -2.5-0.8-4.7-2.4-6.2-4.5l3.8-3c0.9 1.4 2.3 2.4 3.9 3 0.5 0.2 1 0.2 1.5 0.1 0.3-0.1 0.6-0.4 0.6-0.7C669.8 136 669.8 135.8 669.7 135.6zM661.3 114.5l0 0c-0.2 0.9-0.8 1.6-1.6 1.9 -1.8 0.7-3.8 0.2-5-1.3 -0.5-0.7-0.6-1.6-0.4-2.5 0.2-0.9 0.8-1.6 1.6-1.9 0.9-0.4 1.8-0.5 2.7-0.2 0.9 0.2 1.7 0.8 2.3 1.5C661.4 112.8 661.5 113.7 661.3 114.5zM659.4 119.7l-4.9 17.8 -6.2-1.7 4.9-17.8L659.4 119.7zM694.4 131.2l1.2-3.7c1.2 0.1 2.4 0.2 3.6 0.2 1 0 2.1-0.2 3.1-0.5l4.5 1.4 -5.7 17.4 4.1 1.3 -1.6 4.9 -15-4.8 1.6-4.9 4.8 1.5 3.8-11.5L694.4 131.2zM541.5 572.1c-3.9-1.3-6.6-4.8-6.9-8.9 -0.2-5.7 4.2-10.6 10-10.8 5.5-0.2 10.3 3.9 10.8 9.5 0.2 2.7-0.7 5.3-2.5 7.3l3.1 2.6c2.8-2.6 4.6-4.2 4.6-4.2s71.1-64.5 106.1-96.5l-0.2-6.9c-5.9 0.7-11.2-3.6-11.8-9.5 -0.7-5.9 3.6-11.2 9.5-11.8 5.9-0.7 11.2 3.6 11.8 9.5 0 0.2 0 0.3 0 0.5 0.2 2.9-0.8 5.8-2.7 8l0.4 4c4.7-4.3 8.2-7.5 10.2-9.4 15.4-14.2 23.7-15.4 37-16.8 10.1-1.6 19.6 5.3 21.2 15.4 0.1 0.8 0.2 1.5 0.2 2.3 0 9.1-16.2 24.9-25.9 30.8 -9.7 5.9-23.6 21-23.6 21l-66.3 64.4c0 0-9.8 8.6-21.2 18.5l-77.2 13.2c5.6-8.6 12-16.5 19.2-23.8L541.5 572.1zM721.9 147.8v0c-0.4 0.2-0.9 0.3-1.4 0.3 -0.4 0.1-0.9 0.1-1.3 0 -0.4 0-0.7-0.1-1.1-0.2 -0.9-0.3-1.8-0.7-2.6-1.3 -0.7-0.5-1.3-1.2-1.7-2 -0.4-0.8-0.7-1.7-0.7-2.6 0-1.1 0.2-2.2 0.5-3.3 0.4-1.1 1-2.1 1.7-3 0.7-0.8 1.6-1.4 2.5-1.8 0.9-0.4 2-0.6 3-0.6 1.1 0 2.2 0.2 3.2 0.5 1.1 0.4 2.1 1 3 1.7 0.9 0.8 1.7 1.8 2.1 2.9 0.5 1.3 0.8 2.7 0.8 4.1 0 1.8-0.4 3.7-1 5.4 -0.6 1.8-1.5 3.5-2.6 5 -0.9 1.2-2 2.2-3.3 3 -1.1 0.7-2.4 1.1-3.7 1.2 -1.3 0.1-2.5 0-3.7-0.5 -1.4-0.4-2.8-1.2-3.8-2.2 -0.9-0.8-1.6-1.8-2.2-2.9l4.4-2.5c0.3 0.6 0.6 1.1 1.1 1.6 0.5 0.5 1.1 0.9 1.7 1.1 0.5 0.2 1.1 0.3 1.7 0.2 0.6-0.1 1.1-0.3 1.6-0.6 0.6-0.4 1.1-0.9 1.5-1.5 0.6-0.8 1.1-1.7 1.4-2.7C722.8 147.5 722.3 147.7 721.9 147.8zM141.5 643.8c5.2 8.3 11.2 16.1 18 23.2l-82.9 14.2L141.5 643.8zM523.4 901.6l0 0c-5.8 2.7-12.5 2.7-18.4 0 -42.9-20-84-43.5-123.1-70.2l25.7-4.4c33.6 22 68.7 41.5 105.1 58.5 0.9 0.4 2 0.4 2.9 0 60.2-27.9 116.6-63.4 167.9-105.6l34.5-5.9C659.7 825.8 594.2 868.8 523.4 901.6zM730.7 803.4c15-13.3 28.7-26.3 41.2-38.7l103.3-17.7L730.7 803.4zM975.9 705.7L24.1 868.3V714.3l951.7-162.6V705.7z"/>
</svg>
