<svg class="svg product-arrow" viewBox="0 0 1000 1000" version="1.1" xmlns="http://www.w3.org/2000/svg">
	<style type="text/css">
		.product-arrow {
			fill:#F2F2F2;
		}
	</style>
	<path class="st0" d="M449.9,375.8l183.7-183.2c24.2-23.4,24.6-61.8,1.3-85.9c-0.4-0.4-0.9-0.9-1.3-1.3l-88.5-88.3C533.6,5.8,517.8-0.4,501.3,0c-16.4-0.4-32.2,5.8-43.7,17.4L106,368.2l-88.5,88.3c-23.3,24.4-23.3,62.8,0,87.2l88.5,88.1l351.8,350.8c24.5,23.2,63,23.2,87.5,0l88.5-88.1c23.3-24.4,23.3-62.8,0-87.2L450,624.1h487.8c34.2-0.4,61.6-28,62.2-62.1V437.9c-0.4-34.1-28.1-61.5-62.2-62.1H449.9z"/>
</svg>
